<?xml version="1.0" standalone="no"?>
<!DOCTYPE svg PUBLIC "-//W3C//DTD SVG 1.1//EN" "http://www.w3.org/Graphics/SVG/1.1/DTD/svg11.dtd" >
<svg xmlns="http://www.w3.org/2000/svg">
<metadata>Generated by IcoMoon</metadata>
<defs>
<font id="MobiriseIcons" horiz-adv-x="1024">
<font-face units-per-em="1024" ascent="960" descent="-64" />
<missing-glyph horiz-adv-x="1024" />
<glyph unicode="&#x20;" horiz-adv-x="512" d="" />
<glyph unicode="&#xe900;" glyph-name="mbri-add-submenu" d="M64 224v-64c0-16.768 15.232-32 32-32h177.92l-7.936-8c-31.104-31.104 14.336-75.712 44.032-46.080l64 64c12.288 11.968 12.288 34.176 0 46.080l-64 64c-25.856 25.856-72.96-16.96-44.032-46.080l10.048-9.92h-148.032v32c0 42.24-64 41.344-64 0zM576 256c-70.4 0-128-57.6-128-128s57.6-128 128-128h320c70.4 0 128 57.6 128 128s-57.6 128-128 128zM576 192h320c36.032 0 64-27.968 64-64s-27.968-64-64-64h-320c-36.032 0-64 27.968-64 64s27.968 64 64 64zM128 576c-70.4 0-128-57.6-128-128s57.6-128 128-128h640c70.4 0 128 57.6 128 128s-57.6 128-128 128zM128 512h640c36.032 0 64-27.968 64-64s-27.968-64-64-64h-640c-36.032 0-64 27.968-64 64s27.968 64 64 64zM128 896c-70.4 0-128-57.6-128-128s57.6-128 128-128h640c70.4 0 128 57.6 128 128s-57.6 128-128 128zM128 832h640c36.032 0 64-27.968 64-64s-27.968-64-64-64h-640c-36.032 0-64 27.968-64 64s27.968 64 64 64z" />
<glyph unicode="&#xe901;" glyph-name="mbri-alert" d="M800 768c88.768 0 160-71.232 160-160 0-40.576 64-41.792 64 0 0 123.328-100.672 224-224 224-44.16 0-40.576-64 0-64zM224 832c-123.328 0-224-100.672-224-224 0-43.328 64-42.24 64 0 0 88.768 71.232 160 160 160 41.6 0 41.152 64 0 64zM512 960c-68.48 0-128-40-128-96 0-41.152 64-41.088 64 0 0 17.92 33.664 32 64 32s64-11.84 64-32c0-42.56 64-41.856 64 0 0 54.4-59.52 96-128 96zM512 767.168c-122.24 0-197.12-62.080-233.984-136s-42.048-156.672-42.048-211.968c0-91.136-24.192-148.48-48-184-23.68-35.648-43.968-48-43.968-48-24.768-13.696-12.288-60.48 16-60.032h704c30.848-3.2 43.264 51.712 14.080 62.080 0 0-18.944 6.912-42.112 39.936-23.040 33.088-48 90.752-48 190.080 0 55.296-5.12 138.048-41.984 211.968-36.864 73.856-111.744 135.936-233.984 135.936zM689.92 603.2c28.928-57.792 34.112-132.48 34.112-184 0-81.728 11.968-163.2 61.952-228.032h-553.92c55.936 64.832 67.136 161.472 67.968 228.032 0 51.52 5.12 126.208 33.92 184s75.84 99.968 178.048 99.968 149.12-42.24 177.92-99.968zM512-64c-68.48 0-128 40-128 96 0 41.152 64 41.088 64 0 0-17.92 33.664-32 64-32s64 11.84 64 32c0 42.56 64 41.856 64 0 0-54.4-59.52-96-128-96z" />
<glyph unicode="&#xe902;" glyph-name="mbri-align-center" d="M288 384h448c43.136 0 41.728-64 0-64h-448c-42.88 0-41.472 64 0 64zM32 192h960c43.136 0 41.728-64 0-64h-960c-42.88 0-41.472 64 0 64zM32 576h960c43.136 0 41.728-64 0-64h-960c-42.88 0-41.472 64 0 64zM288 768h448c43.136 0 41.728-64 0-64h-448c-42.88 0-41.472 64 0 64z" />
<glyph unicode="&#xe903;" glyph-name="mbri-align-justify" d="M32 384h960c43.136 0 41.728-64 0-64h-960c-42.88 0-41.472 64 0 64zM32 192h960c43.136 0 41.728-64 0-64h-960c-42.88 0-41.472 64 0 64zM32 576h960c43.136 0 41.728-64 0-64h-960c-42.88 0-41.472 64 0 64zM32 768h960c43.136 0 41.728-64 0-64h-960c-42.88 0-41.472 64 0 64z" />
<glyph unicode="&#xe904;" glyph-name="mbri-align-left" d="M32 384h960c43.136 0 41.728-64 0-64h-960c-42.88 0-41.472 64 0 64zM32 192h512c43.136 0 41.728-64 0-64h-512c-42.88 0-41.472 64 0 64zM32 576h512c43.136 0 41.728-64 0-64h-512c-42.88 0-41.472 64 0 64zM32 768h960c43.136 0 41.728-64 0-64h-960c-42.88 0-41.472 64 0 64z" />
<glyph unicode="&#xe905;" glyph-name="mbri-align-right" d="M992 384h-960c-43.136 0-41.728-64 0-64h960c42.88 0 41.472 64 0 64zM992 192h-512c-43.136 0-41.728-64 0-64h512c42.88 0 41.472 64 0 64zM992 576h-512c-43.136 0-41.728-64 0-64h512c42.88 0 41.472 64 0 64zM992 768h-960c-43.136 0-41.728-64 0-64h960c42.88 0 41.472 64 0 64z" />
<glyph unicode="&#xe906;" glyph-name="mbri-android" d="M251.52 878.72l63.040-125.12c23.424-46.464-35.392-68.608-55.232-29.312l-63.104 125.12c-20.032 39.68 36.992 65.472 55.232 29.312zM768 448c0-35.328-28.672-64-64-64s-64 28.672-64 64 28.672 64 64 64 64-28.672 64-64zM384 448c0-35.328-28.672-64-64-64s-64 28.672-64 64 28.672 64 64 64 64-28.672 64-64zM512 704c-252.16 0-463.552-175.36-511.488-409.984-3.584-18.56 12.992-38.4 32-38.016h959.040c18.944-0.64 35.52 19.392 32 38.016-48.064 234.624-259.52 409.984-511.552 409.984zM512 640c207.872 0 377.344-135.68 433.6-320h-867.2c56.32 184.32 225.728 320 433.6 320zM64 192c-34.88 0-64-29.12-64-64v-64c0-34.88 29.12-64 64-64h896c34.88 0 64 29.12 64 64v64c0 34.88-29.12 64-64 64zM64 128h896v-64h-896zM772.48 878.72l-63.040-125.12c-23.424-46.464 35.392-68.608 55.232-29.312l63.104 125.12c20.032 39.68-36.992 65.472-55.232 29.312z" />
<glyph unicode="&#xe907;" glyph-name="mbri-apple" d="M673.92 960c-119.872 0-225.92-93.184-225.92-210.816 0-39.232 54.144-45.184 94.080-45.184 120.064 0 225.92 95.488 225.92 213.12 0 41.984-55.040 42.88-94.080 42.88zM692.032 896c0-64.512-70.592-128-168.064-128 0 64.64 66.304 128 168.064 128zM328 704c-183.68 0-264-154.496-264-320 0-257.664 152.32-448 296-448 113.728 0 113.536 64 166.016 64s56.32-64 165.888-64c96 0 210.752 88.064 266.048 251.2 4.096 12.8-1.024 28.16-12.16 35.968-54.4 34.56-81.92 93.568-81.92 160.832 0 62.080 22.4 115.84 70.016 151.168 13.056 8.96 17.664 28.16 9.984 41.984-45.952 82.432-127.104 126.848-217.856 126.848-113.536 0-129.088-64-199.936-64-71.040 0-83.2 64-198.080 64zM328 640c96 0 100.032-63.744 198.016-64 97.92 0 99.392 64 199.936 64 65.664 0 112.448-28.16 147.968-78.848-47.808-46.272-73.92-106.24-73.92-177.152 0-77.76 31.616-144.192 88-190.848-51.008-129.792-144-193.152-196.032-193.152-71.68 0-87.808 64-165.952 64-78.208 0-87.68-64-166.080-64-90.944 0-231.936 139.2-231.936 384 0 138.368 59.904 256 200 256z" />
<glyph unicode="&#xe908;" glyph-name="mbri-arrow-down" d="M54.848 694.72l447.552-448.96c29.76-29.76-16.64-73.408-45.952-44.032l-447.488 448.896c-28.288 28.288 17.28 72.832 45.888 44.16zM969.152 694.72l-383.552-384.96c-29.76-29.824 16.64-73.408 45.952-44.032l383.616 384.896c28.16 28.288-17.408 72.832-46.080 44.16z" />
<glyph unicode="&#xe909;" glyph-name="mbri-arrow-next" d="M265.28 905.152l448.96-447.552c29.76-29.76 73.344 16.64 44.032 45.952l-448.896 447.488c-28.288 28.288-72.832-17.28-44.16-45.888zM265.28-9.152l384.96 383.552c29.824 29.76 73.408-16.64 44.032-45.952l-384.896-383.616c-28.288-28.16-72.832 17.408-44.16 46.080z" />
<glyph unicode="&#xe90a;" glyph-name="mbri-arrow-prev" d="M758.72 905.152l-448.96-447.552c-29.76-29.76-73.344 16.64-44.032 45.952l448.896 447.488c28.288 28.288 72.832-17.28 44.16-45.888zM758.72-9.152l-384.96 383.552c-29.824 29.76-73.408-16.64-44.032-45.952l384.896-383.616c28.288-28.16 72.832 17.408 44.16 46.080z" />
<glyph unicode="&#xe90b;" glyph-name="mbri-arrow-up" d="M969.152 201.28l-447.552 448.96c-29.76 29.76 16.64 73.408 45.952 44.032l447.552-448.896c28.288-28.288-17.28-72.832-45.888-44.16zM54.848 201.28l383.552 384.96c29.76 29.824-16.64 73.408-45.952 44.032l-383.616-384.896c-28.16-28.288 17.408-72.832 46.080-44.16z" />
<glyph unicode="&#xe90c;" glyph-name="mbri-bold" d="M320 800v-256c0-16.768 15.232-32 32-32h128c88.064 0 160 71.872 160 160s-71.936 160-160 160h-128c-17.664 0-32-13.44-32-32zM384 768h96c53.76 0 96-42.24 96-96s-42.24-96-96-96h-96zM320 416v-320c0-16.768 15.232-32 32-32h160c105.792 0 192 86.080 192 192s-86.208 192-192 192h-160c-17.28 0-32-16.32-32-32zM384 384h128c71.488 0 128-56.32 128-128s-56.512-128.64-128-128h-128zM192 928v-960c0-16.768 15.232-32 32-32h288c176 0 320 143.552 320 320 0 101.376-50.56 189.184-124.032 248 35.584 47.36 60.032 103.68 60.032 168 0 158.912-129.024 288-288 288h-256c-17.28 0-32-14.080-32-32zM256 896h224c124.672 0 224-99.456 224-224 0-58.88-22.784-109.76-60.032-150.016-12.16-13.568-9.152-37.76 6.016-48 70.528-45.184 118.016-126.72 118.016-217.984 0-142.4-114.432-256-256-256h-256z" />
<glyph unicode="&#xe90d;" glyph-name="mbri-bookmark" d="M224 512h576c41.344 0 43.52-64 0-64h-576c-42.24 0-42.368 64 0 64zM224 640h576c41.344 0 43.52-64 0-64h-576c-42.24 0-42.368 64 0 64zM224 768h576c41.344 0 43.52-64 0-64h-576c-42.24 0-42.368 64 0 64zM64 865.92v-832.64c0-66.944 62.080-109.44 105.984-94.080l344 122.56 340.096-123.776c40.192-10.688 105.984 26.496 105.984 94.080v833.856c-0.064 52.736-43.584 94.080-96.064 94.080h-704c-56.576 0-96-41.472-96-94.080zM160 896h704c18.368 0 32-11.968 32-30.080v-833.92c0-16.96-15.552-35.2-30.080-30.080l-341.76 123.904c-6.272 2.752-13.44 3.456-20.032 1.92l-353.92-128.448c-13.568-4.928-22.080 14.848-22.080 33.92v832.832c0 18.112 13.632 30.080 32 30.080z" />
<glyph unicode="&#xe90e;" glyph-name="mbri-bootstrap" d="M256 800v-640c0-16.768 15.232-32 32-32h256c123.52 0 224 100.48 224 224 0 49.472-23.040 91.328-49.92 128 26.88 36.672 49.92 78.464 49.92 128 0 123.52-100.48 224-224 224h-256c-21.568 0-32-16.192-32-32zM320 768h224c89.216 0 160-70.848 160-160 0-41.472-16-77.312-41.984-105.984-11.136-11.776-11.136-32.256 0-44.032 25.856-28.672 41.984-64.64 41.984-105.984 0-89.216-70.784-160-160-160h-224v576zM384 416v-128c0-16.768 15.232-32 32-32h129.92c52.096 0 94.080 43.904 94.080 96s-41.984 96-94.080 96h-129.92c-17.664 0-32-13.44-32-32zM448 384h97.92c17.152 0 30.080-12.8 30.080-32s-12.928-32.384-30.080-32h-97.92zM384 672v-128c0-16.768 15.232-32 32-32h129.92c52.16 0 94.080 43.904 94.080 96s-41.984 96-94.080 96h-129.92c-19.072 0-32-15.36-32-32zM448 640h97.92c17.152 0 30.080-12.8 30.080-32s-12.928-32-30.080-32h-97.92zM96 960c-52.608 0-96-43.392-96-96v-768c0-52.608 43.392-96 96-96h832c52.608 0 96 43.392 96 96v768c0 52.608-43.392 96-96 96zM96 896h832c18.304 0 32-13.696 32-32v-768c0-18.304-13.696-32-32-32h-832c-18.304 0-32 13.696-32 32v768c0 18.304 13.696 32 32 32z" />
<glyph unicode="&#xe90f;" glyph-name="mbri-briefcase" d="M138.88 520.448l128.256-127.040c43.008-42.688 61.824-73.408 148.864-73.408h192c80.512 0 102.592 23.36 152.128 73.408l127.040 128.32c27.008 27.264-17.92 72.064-44.16 45.632l-126.848-128.32c-39.168-39.488-69.76-55.040-108.16-55.040h-192c-53.632 0-77.888 28.416-104.768 55.040l-128.192 127.040c-29.952 29.568-74.88-15.36-44.16-45.632zM352 960c-52.608 0-96-43.392-96-96v-64c0-42.368 64-42.24 64 0v64c0 18.304 13.696 32 32 32h320c18.304 0 32-13.696 32-32v-64c0-42.048 64-41.6 64 0v64c0 52.608-43.392 96-96 96zM96 704c-52.608 0-96-43.392-96-96v-512c0-52.608 43.392-96 96-96h832c52.608 0 96 43.392 96 96v512c0 52.608-43.392 96-96 96zM96 640h832c18.304 0 32-13.696 32-32v-512c0-18.304-13.696-32-32-32h-832c-18.304 0-32 13.696-32 32v512c0 18.304 13.696 32 32 32z" />
<glyph unicode="&#xe910;" glyph-name="mbri-browse" d="M160 576h704c42.432 0 42.88-64 0-64h-704c-42.432 0-42.432 64 0 64zM448 672c0-17.664-14.336-32-32-32s-32 14.336-32 32 14.336 32 32 32 32-14.336 32-32zM320 672c0-17.664-14.336-32-32-32s-32 14.336-32 32 14.336 32 32 32 32-14.336 32-32zM192 672c0-17.664-14.336-32-32-32s-32 14.336-32 32 14.336 32 32 32 32-14.336 32-32zM96 832c-52.608 0-96-43.392-96-96v-576c0-52.608 43.392-96 96-96h832c52.608 0 96 43.392 96 96v576c0 52.608-43.392 96-96 96zM96 768h832c18.304 0 32-13.696 32-32v-576c0-18.304-13.696-32-32-32h-832c-18.304 0-32 13.696-32 32v576c0 18.304 13.696 32 32 32z" />
<glyph unicode="&#xe911;" glyph-name="mbri-bulleted-list" d="M352 128h640c43.52 0 42.048-64 0-64h-640c-42.88 0-42.112 64 0 64zM352 512h640c43.52 0 42.048-64 0-64h-640c-42.88 0-42.112 64 0 64zM128 192c-70.4 0-128-57.6-128-128s57.6-128 128-128 128 57.6 128 128-57.6 128-128 128zM128 128c35.712 0 64-28.288 64-64s-28.288-64-64-64-64 28.288-64 64 28.288 64 64 64zM128 576c-70.4 0-128-57.6-128-128s57.6-128 128-128 128 57.6 128 128-57.6 128-128 128zM128 512c35.712 0 64-28.288 64-64s-28.288-64-64-64-64 28.288-64 64 28.288 64 64 64zM128 960c-70.4 0-128-57.6-128-128s57.6-128 128-128 128 57.6 128 128-57.6 128-128 128zM128 896c35.712 0 64-28.288 64-64s-28.288-64-64-64-64 28.288-64 64 28.288 64 64 64zM352 896h640c43.52 0 42.048-64 0-64h-640c-42.88 0-42.112 64 0 64z" />
<glyph unicode="&#xe912;" glyph-name="mbri-calendar" d="M704 736v128c0 41.216 64 44.288 64 0v-128c0-42.496-64-41.92-64 0zM192 736v128c0 41.216 64 44.288 64 0v-128c0-42.496-64-41.92-64 0zM800 320h-128c-41.216 0-44.288 64 0 64h128c42.56 0 41.92-64 0-64zM544 320h-128c-41.216 0-44.288 64 0 64h128c42.56 0 41.92-64 0-64zM288 320h-128c-41.216 0-44.288 64 0 64h128c42.56 0 41.92-64 0-64zM800 512h-128c-41.216 0-44.288 64 0 64h128c42.56 0 41.92-64 0-64zM544 512h-128c-41.216 0-44.288 64 0 64h128c42.56 0 41.92-64 0-64zM288 512h-128c-41.216 0-44.288 64 0 64h128c42.56 0 41.92-64 0-64zM96 832c-52.608 0-96-43.392-96-96v-576c0-52.608 43.392-96 96-96h768c52.608 0 96 43.392 96 96v576c0 52.608-43.392 96-96 96-43.072 0-41.28-64 0-64 18.304 0 32-13.696 32-32v-576c0-18.304-13.696-32-32-32h-768c-18.304 0-32 13.696-32 32v576c0 18.304 13.696 32 32 32 41.28 0 43.84 64 0 64zM352 768h256c43.52 0 41.088 64 0 64h-256c-42.24 0-41.6-64 0-64z" />
<glyph unicode="&#xe913;" glyph-name="mbri-camera" d="M800 576h64c43.136 0 42.24-64 0-64h-64c-43.136 0-41.984 64 0 64zM160 896c-52.608 0-96-43.392-96-96 0-43.136 64-40.576 64 0 0 18.304 13.696 32 32 32h128c18.304 0 32-13.696 32-32 0-42.112 64-42.432 64 0 0 52.608-43.392 96-96 96zM480 576c-123.328 0-224-100.672-224-224s100.672-224 224-224 224 100.672 224 224-100.672 224-224 224zM480 512c88.768 0 160-71.232 160-160s-71.232-160-160-160-160 71.232-160 160 71.232 160 160 160zM96 704c-52.608 0-96-43.392-96-96v-512c0-52.608 43.392-96 96-96h832c52.608 0 96 43.392 96 96v512c0 52.608-43.392 96-96 96zM96 640h832c18.304 0 32-13.696 32-32v-512c0-18.304-13.696-32-32-32h-832c-18.304 0-32 13.696-32 32v512c0 18.304 13.696 32 32 32z" />
<glyph unicode="&#xe914;" glyph-name="mbri-cart-add" d="M832 800v-96h-96c-42.624 0-42.24-64 0-64h96v-96c0-43.008 64-41.984 64 0v96h96c43.52 0 41.92 64 0 64h-96v96c0 42.24-64 42.752-64 0zM352 704h256c42.624 0 42.752-64 0-64h-256c-42.88 0-41.728 64 0 64zM352 576h320c42.88 0 42.56-64 0-64h-320c-42.56 0-42.112 64 0 64zM416 448h320c42.368 0 42.88-64 0-64h-320c-42.368 0-42.496 64 0 64zM736 192c-52.672 0-96-43.392-96-96s43.328-96 96-96 96 43.392 96 96-43.328 96-96 96zM736 128c18.048 0 32-13.952 32-32s-13.952-32-32-32c-18.048 0-32 13.952-32 32s13.952 32 32 32zM352 192c-52.672 0-96-43.392-96-96s43.328-96 96-96 96 43.392 96 96-43.328 96-96 96zM352 128c18.048 0 32-13.952 32-32s-13.952-32-32-32c-18.048 0-32 13.952-32 32s13.952 32 32 32zM128 768c16.384 0 25.92-45.312 32-70.016l65.92-321.92c25.6-95.104 80.448-120.064 158.080-120.064h384c43.52 0 120.064 26.368 188.032 144 21.952 38.016-35.712 67.2-56.064 32-60.032-104.064-111.36-112-131.968-112h-384c-63.104 0-84.672 22.4-97.92 72l-62.080 318.080c-11.392 63.424-38.4 121.92-96 121.92h-96c-42.24 0-43.008-64 0-64z" />
<glyph unicode="&#xe915;" glyph-name="mbri-cart-full" d="M416 448h384c43.648 0 41.344-64 0-64h-384c-43.776 0-41.6 64 0 64zM32 768h96c24.576 0 31.36-39.424 37.312-70.784l64-336c23.488-87.68 79.808-105.216 154.688-105.216h384c94.080 0 162.176 11.776 186.88 95.168l60.032 201.984c29.696 97.92-11.52 150.848-103.936 150.848h-558.976c-42.24 0-42.24-64 0-64h558.976c59.84 0 55.040-24.832 41.984-68.8l-57.984-198.016c-16-54.528-76.8-53.12-126.976-53.12h-384c-57.6-3.072-78.4 9.152-90.752 55.168l-64 334.080c-14.016 73.024-28.736 122.688-101.248 122.688h-96c-42.24 0-43.008-64 0-64zM586.24 950.72l-105.216-107.008-41.6 43.904c-11.712 10.88-32 10.88-43.712 0l-63.488-63.168c-33.92-33.728 12.672-76.16 43.648-45.44l41.6 41.472 41.728-43.84c11.648-10.88 32-10.88 43.648 0l105.152 107.072 105.152-107.072c11.648-10.88 32-10.88 43.52 0l41.728 43.904 41.6-41.344c30.976-30.72 78.464 10.88 43.712 45.44l-63.488 63.040c-11.648 10.88-32 10.88-43.648 0l-41.6-44.032-105.216 107.072c-12.8 12.8-32.512 11.008-43.52 0zM352 576h512c42.56 0 42.368-64 0-64h-512c-41.6 0-42.56 64 0 64zM736 192c-52.736 0-96-43.264-96-96s43.264-96 96-96 96 43.264 96 96-43.264 96-96 96zM736 128c18.112 0 32-13.888 32-32s-13.888-32-32-32c-18.112 0-32 13.888-32 32s13.888 32 32 32zM352 192c-52.736 0-96-43.264-96-96s43.264-96 96-96 96 43.264 96 96-43.264 96-96 96zM352 128c18.112 0 32-13.888 32-32s-13.888-32-32-32c-18.112 0-32 13.888-32 32s13.888 32 32 32z" />
<glyph unicode="&#xe916;" glyph-name="mbri-cash" d="M224 320h-32v32c0 42.112-64 42.88-64 0v-64c0-16.768 15.232-32 32-32h64c42.112 0 42.88 64 0 64zM736 320h32v32c0 42.112 64 42.88 64 0v-64c0-16.768-15.232-32-32-32h-64c-42.112 0-42.88 64 0 64zM224 640h-32v-32c0-42.112-64-42.88-64 0v64c0 16.768 15.232 32 32 32h64c42.112 0 42.88-64 0-64zM448 672v-38.016c-37.44-13.056-64-48.192-64-89.984 0-65.92 42.88-94.976 96-96 17.6-0.64 32-15.104 32-32 0-17.536-14.72-32-32-32h-64c-42.368 0-42.24-64 0-64h32v-32c0-42.688 64-42.56 64 0v36.032c37.504 13.056 64 50.112 64 91.968 0 52.864-38.208 95.488-96 95.488-18.048 0-32 15.104-32 32.512 0 17.536 14.72 32 32 32h64c45.056 0 39.232 64 0 64h-32v32c0 42.624-64 41.984-64 0zM736 640h32v-32c0-42.112 64-42.88 64 0v64c0 16.768-15.232 32-32 32h-64c-42.112 0-42.88-64 0-64zM96 832c-52.608 0-96-43.392-96-96v-512c0-52.608 43.392-96 96-96h768c52.608 0 96 43.392 96 96v512c0 52.608-43.392 96-96 96zM96 768h768c18.304 0 32-13.696 32-32v-512c0-18.304-13.696-32-32-32h-768c-18.304 0-32 13.696-32 32v512c0 18.304 13.696 32 32 32z" />
<glyph unicode="&#xe917;" glyph-name="mbri-change-style" d="M977.92 956.032c-212.928-113.024-474.624-284.672-589.888-400-94.72-94.72-78.080-213.76-28.032-264 50.048-50.176 154.88-64 257.92 36.032 105.28 102.016 280.64 356.48 402.24 585.984 14.848 29.184-16.832 54.528-42.048 41.984zM897.92 836.032c-87.040-161.92-218.88-359.552-323.84-460.032-86.272-82.432-155.904-54.144-170.112-40-39.68 39.68-26.88 116.992 32 176 118.72 118.656 309.888 239.232 462.080 324.032zM192 256c-99.52 0-117.76-78.976-128-160 0.896-44.416-26.56-82.304-52.032-102.016-22.208-15.872-7.296-59.136 20.032-57.984 141.76-0.64 288 27.52 288 160 0 97.792-45.44 160-128 160zM192 192c58.88 0 64-54.4 64-96 0-64.896-79.808-83.968-150.016-83.968 12.352 24.512 22.144 52.096 22.016 83.968-0.32 59.52 23.808 96 64 96z" />
<glyph unicode="&#xe918;" glyph-name="mbri-chat" d="M160 640h704c43.136 0 41.984-64 0-64h-704c-43.52 0-40.96 64 0 64zM160 768h704c43.136 0 41.984-64 0-64h-704c-43.52 0-40.96 64 0 64zM96 960c-52.608 0-96-43.392-96-96v-576c0-52.608 43.392-96 96-96h32v-160c0-28.992 33.664-42.24 54.016-22.016l182.016 182.016h563.968c52.608 0 96 43.392 96 96v576c0 52.608-43.392 96-96 96zM96 896h832c18.304 0 32-13.696 32-32v-576c0-18.304-13.696-32-32-32h-576c-8 0-16-2.688-22.016-8l-137.984-137.92v113.92c0 16.768-15.232 32-32 32h-64c-18.304 0-32 13.696-32 32v576c0 18.304 13.696 32 32 32z" />
<glyph unicode="&#xe919;" glyph-name="mbri-clock" d="M448 800v-320c0-17.728 14.272-32 32-32h192c42.24 0 42.688 64 0 64h-160v288c0 41.472-64 43.392-64 0zM480 960c-264.704 0-480-215.296-480-480s215.296-480 480-480 480 215.296 480 480-215.296 480-480 480zM480 896c230.144 0 416-185.856 416-416s-185.856-416-416-416-416 185.856-416 416 185.856 416 416 416z" />
<glyph unicode="&#xe91a;" glyph-name="mbri-close" d="M394.048 375.232l-384.448-384.192c-29.44-29.44 15.68-74.368 44.16-45.952l384.32 384.128c30.464 30.464-16.64 73.472-44.032 46.080zM970.048 951.232l-384.448-384.192c-29.44-29.44 15.68-74.368 44.16-45.952l384.256 384.128c30.464 30.464-16.64 73.472-44.032 46.080zM9.728 905.28l960.64-960.192c28.544-28.544 73.408 16.64 44.032 46.080l-960.64 959.872c-27.52 27.712-74.112-15.68-44.032-45.76z" />
<glyph unicode="&#xe91b;" glyph-name="mbri-cloud" d="M544 832c-163.968-2.944-262.4-98.688-312-196.032-129.28-12.8-232-119.36-232-251.968 0-141.248 114.752-256 256-256h576c105.6 0 192 86.4 192 192 0 83.2-57.472 149.12-132.032 176-10.368 196.352-174.72 339.2-347.968 336zM544 768c141.76 2.56 288-119.936 288-289.92 0.64-14.336 11.968-27.392 25.984-30.080 57.856-11.84 102.016-65.92 102.016-128 0-71.040-56.96-128-128-128h-576c-106.88 0-192 85.12-192 192 0 105.216 81.6 189.312 185.984 192 12.8 0 25.216 8.192 30.080 20.032 38.976 86.208 115.904 169.28 263.936 171.968z" />
<glyph unicode="&#xe91c;" glyph-name="mbri-code" d="M823.936 693.76l192.512-224.256c10.048-11.52 10.048-30.528 0-42.048l-192.512-224.32c-27.264-31.808-74.688 11.2-48.128 42.048l174.464 202.24-174.464 204.16c-26.56 31.168 22.784 71.68 48.128 42.112zM643.904 751.168l-319.232-576.768c-21.12-38.272 36.48-65.28 55.872-30.080l319.36 576.768c19.648 35.648-35.2 67.648-55.936 30.080zM200.128 693.76l-192.576-224.256c-10.048-11.52-10.048-30.528 0-42.048l192.512-224.32c27.264-31.808 74.688 11.2 48.128 42.048l-174.464 202.24 174.464 204.16c26.56 31.168-22.784 71.68-48.128 42.112z" />
<glyph unicode="&#xe91d;" glyph-name="mbri-contact-form" d="M480 320h384c42.368 0 42.752-64 0-64h-384c-42.112 0-43.008 64 0 64zM480 448h384c42.368 0 42.752-64 0-64h-384c-42.112 0-43.008 64 0 64zM480 576h384c42.368 0 42.752-64 0-64h-384c-42.112 0-43.008 64 0 64zM832 864v-128c0-41.408-64-43.52-64 0v128c0 42.88 64 41.856 64 0zM192 576c-34.88 0-64-29.12-64-64v-192c0-34.88 29.12-64 64-64h128c34.88 0 64 29.12 64 64v192c0 34.88-29.12 64-64 64zM192 512h128v-192h-128zM256 864v-128c0-41.408-64-43.52-64 0v128c0 42.88 64 41.856 64 0zM96 832c-52.608 0-96-43.392-96-96v-576c0-52.608 43.392-96 96-96h832c52.608 0 96 43.392 96 96v576c0 52.608-43.392 96-96 96-42.88 0-41.6-64 0-64 18.304 0 32-13.696 32-32v-576c0-18.304-13.696-32-32-32h-832c-18.304 0-32 13.696-32 32v576c0 18.304 13.696 32 32 32 42.368 0 42.432 64 0 64zM352 768h320c42.368 0 42.88 64 0 64h-320c-42.624 0-42.24-64 0-64z" />
<glyph unicode="&#xe91e;" glyph-name="mbri-credit-card" d="M736 320h64c43.52 0 41.728-64 0-64h-64c-42.752 0-41.6 64 0 64zM544 320h64c43.52 0 41.728-64 0-64h-64c-42.752 0-41.856 64 0 64zM352 320h64c43.52 0 41.728-64 0-64h-64c-42.752 0-41.856 64 0 64zM160 320h64c43.52 0 41.728-64 0-64h-64c-42.752 0-42.88 64 0 64zM640 704c-70.4 0-128-57.6-128-128s57.6-128 128-128c25.088 0 44.928 13.824 64 25.984 19.072-12.16 38.912-25.984 64-25.984 70.4 0 128 57.6 128 128s-57.6 128-128 128c-24 0-44.48-12.288-64-24-19.52 11.712-40 24-64 24zM640 640c16.64 0 30.912-6.144 41.984-16 11.776-11.136 32.256-11.136 44.032 0 11.072 9.856 25.28 16 41.984 16 35.712 0 64-28.288 64-64s-28.288-64-64-64c-15.744 0-29.824 7.040-41.984 17.92-11.776 11.2-32.256 11.2-44.032 0-12.16-10.88-26.24-17.92-41.984-17.92-35.712 0-64 28.288-64 64s28.288 64 64 64zM96 832c-52.608 0-96-43.392-96-96v-512c0-52.608 43.392-96 96-96h832c52.608 0 96 43.392 96 96v512c0 52.608-43.392 96-96 96zM96 768h832c18.304 0 32-13.696 32-32v-512c0-18.304-13.696-32-32-32h-832c-18.304 0-32 13.696-32 32v512c0 18.304 13.696 32 32 32z" />
<glyph unicode="&#xe91f;" glyph-name="mbri-cursor-click" d="M182.72 73.472l45.952 45.952c31.36 31.36-16.192 74.24-45.248 45.248l-45.952-45.952c-29.248-29.248 16-74.496 45.248-45.248zM903.808 795.2l45.888 45.888c31.36 31.36-16.256 74.24-45.312 45.312l-45.952-45.952c-29.184-29.248 16-74.496 45.312-45.248zM576 863.040v64.96c0 44.16-64 40.96-64 0v-65.024c0-41.344 64-41.344 64 0zM228.8 839.744l-45.888 46.080c-31.36 31.232-74.24-16.256-45.312-45.312l45.952-45.952c29.248-29.184 74.496 16 45.248 45.248zM31.040 448h64.96c44.16 0 41.088 64 0 64h-65.024c-41.344 0-41.28-64 0-64zM321.28 663.36l192.64-704.96c6.528-20.48 36.48-28.416 52.224-14.080l138.496 138.24 138.432-138.24c11.776-11.136 32.384-11.136 44.16 0l128.384 128.192c11.136 11.776 11.136 32.32 0 44.16l-138.496 138.112 138.432 138.24c14.72 14.72 9.088 43.84-10.112 52.096l-641.92 256.32c-25.6 10.24-49.536-11.072-42.24-38.080zM397.632 617.28l539.776-214.272-126.464-126.208c-11.072-11.776-11.072-32.32 0-44.032l138.56-138.24-84.288-84.096-138.496 138.24c-11.776 11.072-32.32 11.072-44.16 0l-122.368-122.24z" />
<glyph unicode="&#xe920;" glyph-name="mbri-cust-feedback" d="M714.112 759.424l-234.432-234.88-106.24 106.432c-27.328 27.328-73.28-17.024-44.16-46.208l128.32-128.448c11.776-11.136 32.32-11.136 44.16 0l256.384 256.896c30.464 30.464-17.024 73.28-44.032 46.208zM96 960c-52.608 0-96-43.392-96-96v-576c0-52.608 43.392-94.72 96-96h32v-160c0-24.832 31.872-44.16 54.016-22.016l182.016 182.016h563.968c52.608 0 96 43.392 96 96v576c0 52.608-43.392 96-96 96zM96 896h832c18.304 0 32-13.696 32-32v-576c0-18.304-13.696-32-32-32h-576c-8 0-16-2.688-22.016-8l-137.984-137.92v113.92c0 16.768-15.232 32-32 32h-64c-18.304 0-32 13.696-32 32v576c0 18.304 13.696 32 32 32z" />
<glyph unicode="&#xe921;" glyph-name="mbri-database" d="M160 448h704c42.048 0 43.52-64 0-64h-704c-43.52 0-41.344 64 0 64zM448 288c0-17.664-14.336-32-32-32s-32 14.336-32 32 14.336 32 32 32 32-14.336 32-32zM320 288c0-17.664-14.336-32-32-32s-32 14.336-32 32 14.336 32 32 32 32-14.336 32-32zM192 288c0-17.664-14.336-32-32-32s-32 14.336-32 32 14.336 32 32 32 32-14.336 32-32zM576 544c0-17.664-14.336-32-32-32s-32 14.336-32 32 14.336 32 32 32 32-14.336 32-32zM448 544c0-17.664-14.336-32-32-32s-32 14.336-32 32 14.336 32 32 32 32-14.336 32-32zM320 544c0-17.664-14.336-32-32-32s-32 14.336-32 32 14.336 32 32 32 32-14.336 32-32zM448 800c0-17.664-14.336-32-32-32s-32 14.336-32 32 14.336 32 32 32 32-14.336 32-32zM320 800c0-17.664-14.336-32-32-32s-32 14.336-32 32 14.336 32 32 32 32-14.336 32-32zM192 800c0-17.664-14.336-32-32-32s-32 14.336-32 32 14.336 32 32 32 32-14.336 32-32zM160 704h704c42.048 0 43.52-64 0-64h-704c-43.52 0-41.344 64 0 64zM96 960c-52.608 0-96-43.392-96-96v-640c0-41.6 26.56-76.8 64-89.984v-70.016c0-34.88 29.12-64 64-64h128c34.88 0 64 29.12 64 64v64h384v-64c0-34.88 29.12-64 64-64h128c34.88 0 59.648 29.44 64 64v70.016c37.44 13.12 64 48.32 64 89.984v640c0 52.608-43.392 96-96 96h-832zM96 896h832c18.304 0 32-13.696 32-32v-640c0-18.304-13.696-32-32-32h-832c-18.304 0-32 13.696-32 32v640c0 18.304 13.696 32 32 32zM128 128h128v-64h-128v64zM768 128h128v-64h-128v64z" />
<glyph unicode="&#xe922;" glyph-name="mbri-delivery" d="M32 384h64c42.24 0 42.88-64 0-64h-64c-42.24 0-42.752 64 0 64zM32 576h64c42.24 0 42.88-64 0-64h-64c-42.24 0-42.752 64 0 64zM32 768h64c42.24 0 42.88-64 0-64h-64c-42.24 0-42.752 64 0 64zM522.24 567.808l-106.24-106.88-42.368 42.368c-26.688 26.688-73.216-17.28-44.16-46.4l64.256-64.64c11.84-11.136 32.448-11.136 44.16 0l128.64 129.088c29.824 29.952-17.92 72.704-44.16 46.4zM288 768c-52.608 0-96-43.392-96-96v-320c0-41.472 64-41.6 64 0v320c0 18.304 13.696 32 32 32h320c18.304 0 32-13.696 32-32v-320c0-18.304-13.696-32-32-32h-64c-41.984 0-41.856-64 0-64h64c52.608 0 96 43.392 96 96v288h144l112-168v-120c0-43.52 64-41.6 64 0v128c0 6.4-2.24 12.8-6.016 17.92l-128 192c-5.76 8.576-15.744 14.080-25.984 14.080h-166.016c-13.184 37.44-48.384 64-89.984 64h-320zM352 320c-52.8 0-96-43.648-96-96s43.2-96 96-96 96 43.648 96 96-43.2 96-96 96zM352 256c18.112 0 32-14.080 32-32s-13.888-32-32-32c-18.112 0-32 14.080-32 32s13.888 32 32 32zM864 320c-52.8 0-96-43.648-96-96s43.2-96 96-96 96 43.648 96 96-43.2 96-96 96zM864 256c18.112 0 32-14.080 32-32s-13.888-32-32-32c-18.112 0-32 14.080-32 32s13.888 32 32 32z" />
<glyph unicode="&#xe923;" glyph-name="mbri-desktop" d="M96 960c-52.608 0-96-43.392-96-96v-576c0-52.608 43.392-96 96-96h288v-128h-96c-42.624 0-41.472-64 0-64h448c43.136 0 41.984 64 0 64h-96v128h288c52.608 0 96 43.392 96 96v576c0 52.608-43.392 96-96 96zM96 896h832c18.304 0 32-13.696 32-32v-576c0-18.304-13.696-32-32-32h-832c-18.304 0-32 13.696-32 32v576c0 18.304 13.696 32 32 32zM160 448c-42.56 0-41.92-64 0-64h704c43.136 0 41.984 64 0 64zM448 192h128v-128h-128z" />
<glyph unicode="&#xe924;" glyph-name="mbri-devices" d="M192 544v-64c0-42.624-64-43.008-64 0v64c0 41.856 64 42.752 64 0zM320 736v-448c0-41.856-64-42.496-64 0v448c0 44.032 64 40.96 64 0zM832 160c0-17.664-14.336-32-32-32s-32 14.336-32 32 14.336 32 32 32 32-14.336 32-32zM672 704c-52.608 0-96-43.392-96-96v-512c0-52.608 43.392-96 96-96h256c52.608 0 96 43.392 96 96v512c0 52.608-43.392 96-96 96zM672 640h256c18.304 0 32-13.696 32-32v-512c0-18.304-13.696-32-32-32h-256c-18.304 0-32 13.696-32 32v512c0 18.304 13.696 32 32 32zM96 896c-52.608 0-96-43.392-96-96v-576c0-52.608 43.392-96 96-96h384c43.904 0 41.472 64 0 64h-384c-18.304 0-32 13.696-32 32v576c0 18.304 13.696 32 32 32h768c18.304 0 32-13.696 32-32 0-42.24 64-42.368 64 0 0 52.608-43.392 96-96 96z" />
<glyph unicode="&#xe925;" glyph-name="mbri-down" d="M9.6 392.832l448.256-448.512c11.776-11.072 32.256-11.072 44.032 0l448.256 448.512c30.080 30.080-15.616 74.496-43.968 46.080l-426.368-426.496-426.24 426.496c-28.032 28.032-73.6-16.64-44.16-46.080zM512 928v-768c0-41.728-64-43.84-64 0v768c0 43.2 64 40.96 64 0z" />
<glyph unicode="&#xe926;" glyph-name="mbri-download" d="M394.24 136.512l128.128-128.192c11.776-11.072 32.256-11.072 44.032 0l128 128.192c29.952 29.888-17.536 72-43.968 45.76l-106.048-105.472-105.984 105.472c-29.824 29.632-74.88-14.976-44.16-45.76zM576 544.832v-320c0-41.856-64-44.288-64 0v320c0 41.6 64 40.448 64 0zM544 960c-167.040 0-264.96-98.432-313.984-196.032-128.384-13.76-230.016-120.128-230.016-251.968 0-141.248 114.752-256 256-256h96c42.88 0 42.24 64 0 64h-96c-106.88 0-192 85.12-192 192 0 105.216 81.6 189.312 185.984 192 12.8 0 25.216 8.192 30.080 19.968 39.296 86.912 114.368 172.032 263.936 172.032 144.64 0 288-119.68 288-289.92 0.64-14.336 11.968-27.392 25.984-30.080 57.856-11.84 102.016-65.92 102.016-128 0-71.040-56.96-128-128-128h-96c-42.112 0-42.24-64 0-64h96c105.6 0 192 86.4 192 192 0 83.2-57.472 149.12-132.032 176-10.24 195.968-173.696 336-347.968 336z" />
<glyph unicode="&#xe927;" glyph-name="mbri-drag-n-drop" d="M64 480v64c0 18.304 13.696 32 32 32h64c42.56 0 41.92 64 0 64h-64c-52.736 0-96-43.264-96-96v-64c0-42.688 64-42.048 64 0zM64 96v-64c0-18.304 13.696-32 32-32h64c42.56 0 41.92-64 0-64h-64c-52.736 0-96 43.264-96 96v64c0 42.688 64 42.048 64 0zM0 224v128c0 41.6 64 43.392 64 0v-128c0-43.008-64-41.6-64 0zM416 960c-52.608 0-96-43.392-96-96v-512c0-52.608 43.392-96 96-96h512c52.608 0 96 43.392 96 96v512c0 52.608-43.392 96-96 96zM416 896h512c18.304 0 32-13.696 32-32v-512c0-18.304-13.696-32-32-32h-512c-18.304 0-32 13.696-32 32v512c0 18.304 13.696 32 32 32zM288 0h128c41.6 0 43.392-64 0-64h-128c-43.008 0-41.6 64 0 64zM640 96v-64c0-18.304-13.696-32-32-32h-64c-42.56 0-41.92-64 0-64h64c52.736 0 95.872 43.264 96 96l0.128 64c0 42.688-64.128 42.048-64.128 0z" />
<glyph unicode="&#xe928;" glyph-name="mbri-drag-n-drop2" d="M952 457.984l-128.64-128.256c-30.080-29.824-74.688 15.808-46.272 44.16l106.56 106.112-106.56 106.24c-27.968 27.776 16 74.048 46.208 43.968l128.64-128.192c10.88-10.88 10.624-33.536 0-44.032zM8 457.984l128.64-128.256c30.080-29.824 74.688 15.808 46.272 44.16l-106.56 106.112 106.56 106.24c27.968 27.776-16 74.048-46.208 43.968l-128.64-128.192c-10.88-10.88-10.624-33.536 0-44.032zM457.92 8.064l-128.192 128.64c-29.824 29.952 15.808 74.624 44.16 46.208l106.112-106.56 106.24 106.56c27.776 27.968 74.048-16 43.968-46.208l-128.192-128.64c-10.88-10.88-33.536-10.624-44.16 0zM457.92 952.064l-128.192-128.832c-29.824-29.952 15.808-74.624 44.16-46.208l106.112 106.624 106.24-106.56c27.776-27.968 74.048 16 43.968 46.208l-128.192 128.64c-10.88 10.88-33.536 10.624-44.16 0zM448 736v-224h-224c-42.432 0-41.344-64 0-64h224v-224c0-42.432 64-42.88 64 0v224h224c43.136 0 40.96 64 0 64h-224v224c0 43.84-64 40.96-64 0z" />
<glyph unicode="&#xe929;" glyph-name="mbri-edit" d="M160 704h384c42.88 0 42.496-64 0-64h-384c-43.84 0-41.472 64 0 64zM841.984 823.68l-512-512.32c-6.4-6.144-10.24-14.464-9.984-23.36v-128c0-16.768 15.232-32 32-32h128c8.32 0.64 16.32 3.2 22.016 9.152l512 512.448c12.288 11.904 12.288 34.112 0 46.080l-128 128c-11.008 11.072-33.024 11.072-44.032 0zM864 755.84l84.032-84.096-482.112-479.744h-81.92v83.328zM160 576h256c41.728 0 43.52-64 0-64h-256c-43.008 0-42.112 64 0 64zM160 832h384c42.88 0 42.496-64 0-64h-384c-43.84 0-41.472 64 0 64zM96 960c-52.608 0-96-43.392-96-96v-832c0-52.608 43.392-96 96-96h512c52.608 0 96 43.392 96 96v128c0 42.432-64 41.408-64 0v-128c0-18.304-13.696-32-32-32h-512c-18.304 0-32 13.696-32 32v832c0 18.304 13.696 32 32 32h512c18.304 0 32-13.696 32-32v-64c0-42.432 64-42.496 64 0v64c0 52.608-43.392 96-96 96z" />
<glyph unicode="&#xe92a;" glyph-name="mbri-edit2" d="M777.6 951.168l-64.32-64.128c-12.352-11.968-12.352-34.24 0-46.080l192.896-192.64c11.776-11.072 32.384-11.072 44.16 0l64.32 64.192c12.352 11.968 12.352 34.24 0 46.080l-192.896 192.704c-12.992 12.992-33.728 10.368-44.16 0zM799.68 883.008l148.736-148.48-20.16-17.92-148.736 146.368zM650.24 824l-640.256-640c-6.4-6.144-10.24-15.104-9.984-24v-192c0-16.768 15.232-32 32-32h192c8.32 0.64 16.384 3.968 22.080 9.984l640.256 640c12.16 11.904 13.44 32.512 0 46.080l-192.128 192c-10.88 10.88-33.536 10.432-44.032 0zM672.256 755.968l148.032-147.968-610.24-608h-146.048v147.968z" />
<glyph unicode="&#xe92b;" glyph-name="mbri-error" d="M393.984 393.984l74.048-73.984-74.048-72c-29.76-28.928 15.36-74.624 44.032-46.080l73.984 74.176 73.984-74.048c28.16-28.16 73.216 17.6 44.032 46.080l-73.984 71.872 73.984 73.984c28.8 28.8-18.752 71.296-44.032 46.080l-73.984-74.112-73.984 73.984c-24.96 24.96-73.472-16.512-44.032-46.080zM160 576h704c43.136 0 41.728-64 0-64h-704c-41.728 0-43.52 64 0 64zM448 672c0-17.664-14.336-32-32-32s-32 14.336-32 32 14.336 32 32 32 32-14.336 32-32zM320 672c0-17.664-14.336-32-32-32s-32 14.336-32 32 14.336 32 32 32 32-14.336 32-32zM192 672c0-17.664-14.336-32-32-32s-32 14.336-32 32 14.336 32 32 32 32-14.336 32-32zM96 832c-52.608 0-96-43.392-96-96v-576c0-52.608 43.392-96 96-96h832c52.608 0 96 43.392 96 96v576c0 52.608-43.392 96-96 96zM96 768h832c18.304 0 32-13.696 32-32v-576c0-18.304-13.696-32-32-32h-832c-18.304 0-32 13.696-32 32v576c0 18.304 13.696 32 32 32z" />
<glyph unicode="&#xe92c;" glyph-name="mbri-extension" d="M704 934.016l-166.016-166.016c-35.072-35.072-32.832-92.672 1.92-128l164.096-166.016c34.688-35.2 93.12-35.2 128 0l164.032 166.016c34.816 35.328 37.12 92.928 1.92 128l-165.952 166.016c-36.224 36.224-96.128 31.808-128 0zM788.032 889.984l165.952-165.952c10.88-10.88 8.768-27.264-1.92-38.016l-166.144-166.080c-10.688-10.752-25.344-10.624-35.84 0l-166.144 166.144c-10.752 10.688-12.8 27.2-1.92 37.952l165.888 163.968c10.24 10.048 31.552 10.432 40.064 1.92zM608 384c-52.608 0-96-43.392-96-96v-256c0-52.608 43.392-96 96-96h256c52.608 0 96 43.392 96 96v256c0 52.608-43.392 96-96 96zM608 320h256c18.304 0 32-13.696 32-32v-256c0-18.304-13.696-32-32-32h-256c-18.304 0-32 13.696-32 32v256c0 18.304 13.696 32 32 32zM96 384c-52.608 0-96-43.392-96-96v-256c0-52.608 43.392-96 96-96h256c52.608 0 96 43.392 96 96v256c0 52.608-43.392 96-96 96zM96 320h256c18.304 0 32-13.696 32-32v-256c0-18.304-13.696-32-32-32h-256c-18.304 0-32 13.696-32 32v256c0 18.304 13.696 32 32 32zM96 896c-52.608 0-96-43.392-96-96v-256c0-52.608 43.392-96 96-96h256c52.608 0 96 43.392 96 96v256c0 52.608-43.392 96-96 96zM96 832h256c18.304 0 32-13.696 32-32v-256c0-18.304-13.696-32-32-32h-256c-18.304 0-32 13.696-32 32v256c0 18.304 13.696 32 32 32z" />
<glyph unicode="&#xe92d;" glyph-name="mbri-features" d="M740.48 940.032l-58.88-134.912-141.632-15.488c-24.32-2.56-35.456-41.6-16.512-57.792l104.704-100.288-29.44-144.64c-4.48-24.32 25.408-46.912 46.080-34.688l123.2 73.216 123.2-73.216c20.608-12.16 50.56 10.368 45.952 34.752l-29.44 144.512 104.832 100.288c19.008 16.256 7.872 55.168-16.448 57.856l-141.632 15.36-58.88 135.040c-11.52 26.688-44.16 25.216-55.040 0zM768 847.488l36.8-86.72c4.48-10.624 14.72-18.304 25.728-19.328l88.32-9.6-66.24-63.616c-7.872-7.68-11.52-19.84-9.216-30.848l18.368-90.624-79.040 46.336c-8.96 5.12-20.48 5.12-29.44 0l-79.040-46.336 18.368 90.624c2.304 11.072-1.28 23.168-9.216 30.912l-66.176 63.68 88.32 9.6c10.88 1.024 21.12 8.704 25.6 19.328zM608 384c-52.608 0-96-43.392-96-96v-256c0-52.608 43.392-96 96-96h256c52.608 0 96 43.392 96 96v256c0 52.608-43.392 96-96 96zM608 320h256c18.304 0 32-13.696 32-32v-256c0-18.304-13.696-32-32-32h-256c-18.304 0-32 13.696-32 32v256c0 18.304 13.696 32 32 32zM96 384c-52.608 0-96-43.392-96-96v-256c0-52.608 43.392-96 96-96h256c52.608 0 96 43.392 96 96v256c0 52.608-43.392 96-96 96zM96 320h256c18.304 0 32-13.696 32-32v-256c0-18.304-13.696-32-32-32h-256c-18.304 0-32 13.696-32 32v256c0 18.304 13.696 32 32 32zM96 896c-52.608 0-96-43.392-96-96v-256c0-52.608 43.392-96 96-96h256c52.608 0 96 43.392 96 96v256c0 52.608-43.392 96-96 96zM96 832h256c18.304 0 32-13.696 32-32v-256c0-18.304-13.696-32-32-32h-256c-18.304 0-32 13.696-32 32v256c0 18.304 13.696 32 32 32z" />
<glyph unicode="&#xe92e;" glyph-name="mbri-file" d="M288 320h448c44.8 0 40.32-64 0-64h-448c-42.432 0-42.624 64 0 64zM288 448h448c44.8 0 40.32-64 0-64h-448c-42.432 0-42.624 64 0 64zM288 576h448c44.8 0 40.32-64 0-64h-448c-42.432 0-42.624 64 0 64zM224 960c-52.608 0-96-43.392-96-96v-832c0-52.608 43.392-96 96-96h576c52.608 0 96 43.392 96 96v704c0.192 8.96-3.52 17.92-9.984 24l-192 192c-6.016 5.312-14.080 8.192-22.016 8zM224 896h436.032l171.968-172.032v-691.968c0-18.304-13.696-32-32-32h-576c-18.304 0-32 13.696-32 32v832c0 18.304 13.696 32 32 32z" />
<glyph unicode="&#xe92f;" glyph-name="mbri-flag" d="M288 832h584l-100.032-176c-5.568-9.6-5.568-22.4 0-32l100.096-176h-584.064c-41.344 0-42.688-64 0-64h640c22.4 0 39.232 28.544 28.032 48l-120.064 209.92 118.016 208c9.344 19.2-6.656 45.568-27.968 46.080h-638.016c-42.496 0-41.6-64 0-64zM96 960c-52.608 0-96-43.392-96-96v-832c0-52.608 43.392-96 96-96s96 43.392 96 96v832c0 52.608-43.392 96-96 96zM96 896c18.304 0 32-13.696 32-32v-832c0-18.304-13.696-32-32-32s-32 13.696-32 32v832c0 18.304 13.696 32 32 32z" />
<glyph unicode="&#xe930;" glyph-name="mbri-folder" d="M96 896c-52.608 0-96-43.392-96-96v-640c0-52.608 43.392-96 96-96h832c52.608 0 96 43.392 96 96v576c0 16.768-15.232 32-32 32h-497.92l-120.128 120c-5.952 5.312-14.016 8.192-21.952 8zM96 832h244.032l117.952-118.016c5.76-6.016 13.76-9.6 22.016-9.984h480v-544c0-18.304-13.696-32-32-32h-832c-18.304 0-32 13.696-32 32v640c0 18.304 13.696 32 32 32z" />
<glyph unicode="&#xe931;" glyph-name="mbri-gift" d="M64 416v-384c0-52.608 43.392-96 96-96h704c52.608 0 96 43.392 96 96v384c0 42.88-64 41.28-64 0v-384c0-18.304-13.696-32-32-32h-224v416c0 43.136-64 40.64-64 0v-416h-128v416c0 43.52-64 40.64-64 0v-416h-224c-18.304 0-32 13.696-32 32v384c0 41.408-64 42.88-64 0zM313.984 960c-50.944 0-92.416-45.056-107.904-73.984-19.84-36.48-20.032-81.472 0-118.016h-110.080c-52.608 0-96-43.392-96-96v-64c0-52.608 43.392-96 96-96h832c52.608 0 96 43.392 96 96v64c0 52.608-43.392 96-96 96h-110.080c20.032 36.48 18.944 81.024 0 118.016-17.536 34.752-48 57.856-81.92 67.968-33.792 10.24-71.040 8.32-102.016-13.952-51.2-36.736-87.424-89.984-121.984-132.096-35.392 46.016-77.696 100.992-121.984 132.096-23.488 16.384-49.92 19.968-76.032 19.968zM316.032 896c12.992 0.192 32.384-4.032 43.904-13.568 47.104-39.040 76.352-79.744 102.144-114.432h-140.16c-60.608 0-73.792 56.96-58.112 88 14.208 28.16 36.992 39.68 52.224 40zM708.032 896c27.52 0 45.76-22.080 53.952-40 21.12-46.208-11.52-88-59.968-88h-140.096c28.672 40.128 67.2 84.48 102.528 113.728 11.52 9.472 30.528 14.272 43.52 14.272zM96 704h832c18.304 0 32-13.696 32-32v-64c0-18.304-13.696-32-32-32h-832c-18.304 0-32 13.696-32 32v64c0 18.304 13.696 32 32 32z" />
<glyph unicode="&#xe932;" glyph-name="mbri-github" d="M512 960c-282.368 0-512-229.632-512-512 0-247.168 176.64-452.224 409.984-500.032 17.92-3.392 37.12 11.776 38.016 30.080v259.968c0.448 14.336-10.048 28.352-24 32-101.44 27.968-168 98.176-168 177.984 0 42.752 19.712 84.48 54.016 118.016 6.016 5.632 9.6 13.76 9.984 21.952v98.112l100.032-50.048c6.208-2.816 13.312-3.52 19.968-2.048 44.8 6.592 97.088 6.912 144 0 6.656-1.472 13.76-0.768 20.032 2.048l99.968 49.92v-97.92c0.32-8.32 3.968-16.384 9.984-22.016 34.304-33.536 54.016-75.264 54.016-118.016 0-79.744-66.56-149.952-168-177.92-13.952-3.648-24.448-17.664-24-32v-260.096c0.832-18.24 20.032-33.408 38.016-30.080 233.344 47.936 409.984 253.056 409.984 500.224 0 282.368-229.632 512-512 512zM512 896c247.808 0 448-200.192 448-448 0-202.368-136-368.32-320-424v198.080c107.84 39.168 192 119.872 192 225.92 0 56.96-26.56 108.608-64 150.016v137.984c0.832 22.016-26.24 39.68-46.080 30.080l-139.84-68.16c-41.6 8.32-99.84 7.040-140.032 0l-139.968 68.16c-19.84 9.6-46.912-8.064-46.080-30.080v-137.984c-37.44-41.408-64-93.056-64-150.016 0-106.048 84.16-186.752 192-225.92v-38.080c-19.584-10.048-28.928-12.032-38.016-12.032-36.864 0-31.36 84.032-121.984 84.032-41.728 0-41.856-64 0-64 49.28 0 47.616-83.584 112-84.288 15.36-0.128 31.040 0.896 48 6.272v-89.92c-184 55.616-320 221.568-320 423.936 0 247.808 200.192 448 448 448z" />
<glyph unicode="&#xe933;" glyph-name="mbri-globe-2" d="M480 960c-264.704 0-480-215.296-480-480s215.296-480 480-480 480 215.296 480 480-215.296 480-480 480zM480 896c62.72-0.256 115.072-52.736 144-102.016-92.48-33.792-195.2-32.192-288 1.92 32.128 48.512 81.28 100.48 144 100.224zM302.080 854.016c-8.128-10.24-16.64-20.672-24.064-32-5.376 3.008-10.752 6.72-16 9.984 13.056 8.064 25.984 15.36 40 22.016zM657.92 854.016c14.912-7.040 28.288-15.36 42.112-24-5.888-3.712-12.032-6.784-18.048-10.112-7.68 11.968-15.616 23.424-24 34.048zM206.080 790.016c13.44-9.472 27.648-18.112 41.92-25.984-31.68-71.808-52.16-158.144-56-252.032h-32c-42.24 0-41.792-64 0-64h32c3.84-93.888 24.32-180.224 56-252.032-14.848-8.128-29.888-16.128-44.032-25.984-86.016 75.968-139.968 185.856-139.968 310.016 0 124.544 55.296 234.368 142.080 310.016zM753.92 790.016c86.848-75.648 142.080-185.472 142.080-310.016 0-125.12-54.592-236.032-142.080-312-13.888 9.792-27.264 19.84-41.92 28.032 31.744 71.68 52.224 158.080 56 251.968h32c41.856 0 42.496 64 0 64h-32c-3.712 93.12-24.704 178.56-56 249.984 14.72 8.064 28.16 18.368 41.984 28.032zM305.92 737.984c113.024-44.16 237.76-45.952 350.080-1.92 26.88-62.336 44.416-139.328 48-224h-448c3.648 85.76 22.528 163.2 49.92 225.92zM256 448h448c-3.648-85.76-22.528-163.2-49.92-225.92-58.432 22.784-120.064 35.008-182.080 33.92-56.32-1.024-112.64-11.648-166.016-32-26.944 62.464-46.272 138.88-49.984 224zM624 163.968c-36.672-55.168-81.536-100.288-144-99.968s-121.984 55.040-144 100.032c92.8 37.12 199.552 35.84 288 0zM280 137.984c7.872-11.712 15.552-23.424 24-33.92-14.912 6.912-28.16 15.36-41.984 23.936 5.952 3.712 11.84 6.592 17.92 9.984zM681.92 137.984c5.376-2.944 10.88-6.784 16-9.984-13.824-8.64-27.008-17.024-41.92-24 8.64 10.88 17.92 21.888 25.984 33.92z" />
<glyph unicode="&#xe934;" glyph-name="mbri-globe" d="M160 512c21.312 0 18.56-27.072 25.984-38.848 7.488-11.712 19.008-25.152 48-25.152 21.12 0 22.016-20.288 22.016-32 0-32 9.472-59.84 30.080-76.8 20.48-16.96 43.968-19.2 65.92-19.2 17.28 0 32-15.68 32-32v-192c0-43.776 64-40.576 64 0v192c0 32-9.472 60.288-30.080 77.184-20.48 16.896-43.904 18.816-65.92 18.816-18.048 0-32 14.976-32 32 0 29.76-1.92 53.76-20.032 73.152-16.256 15.36-46.208 11.2-57.984 22.848-11.648 11.648-13.44 32.64-25.92 45.184-12.544 12.544-34.304 18.816-56.064 18.816-42.88 0-41.984-64 0-64zM644.032 783.168c13.248-23.040 13.952-36.16 13.952-46.080 0-18.88-81.92-71.424-81.92-128 0-72.448 68.48-79.552 233.984-144 33.28-11.392 20.672-27.008 9.984-29.888-138.88-37.248-180.032-45.44-180.032-115.2 0-33.088-64-18.368-64-96.832 0-61.76 43.136-115.52 73.984-150.016 26.24-29.184 75.392 14.080 44.032 46.080s-50.944 64.896-54.016 103.936c-1.152 14.528 9.28 15.552 14.080 18.048 38.656 20.288 49.728 45.696 49.92 77.888 0 42.496 192 28.416 192 128 0 40.448-24.832 59.072-56.96 71.552-64 24.704-117.12 42.24-177.024 66.56-32.832 11.2-17.792 36.096-9.984 43.904 44.992 45.056 67.968 73.216 67.968 107.072 0 30.464-1.728 47.232-20.032 78.976-23.040 40.32-73.6-1.28-55.936-32zM512 960c-282.368 0-512-229.632-512-512s229.632-512 512-512 512 229.632 512 512-229.632 512-512 512zM512 896c247.808 0 448-200.192 448-448s-200.192-448-448-448-448 200.192-448 448 200.192 448 448 448z" />
<glyph unicode="&#xe935;" glyph-name="mbri-growing-chart" d="M864 512h96v-96c0-42.88 64-42.048 64 0v128c0 16.768-15.232 32-32 32h-128c-43.2 0-42.048-64 0-64zM458.24 438.784c-10.24-10.24-212.48-215.040-318.080-319.68-33.92-33.536 10.24-76.16 43.52-43.072 98.56 97.408 296.32 297.984 296.32 297.984l170.24-173.76c11.52-10.88 32-10.88 43.52 0l193.088 196.288c29.888 30.4-20.032 67.2-43.52 43.2l-171.328-174.72-170.112 173.696c-12.288 12.544-32.32 11.2-43.52 0zM0 928v-960c0-17.728 14.272-32 32-32h960c42.368 0 43.072 64 0 64h-928v928c0 43.328-64 41.6-64 0z" />
<glyph unicode="&#xe936;" glyph-name="mbri-hearth" d="M280 896c-161.728 0-280-139.776-280-320 0-184.96 128.32-327.68 252.032-424 123.648-96.384 247.936-148.032 247.936-148.032 7.68-3.008 16.448-3.008 24 0 0 0 124.352 51.648 248.064 148.032 123.648 96.32 251.968 239.040 251.968 424 0 180.224-118.272 320-280 320-131.968 0-203.712-78.976-232-113.92-28.288 34.816-100.032 113.92-232 113.92zM280 832c124.8 0 206.080-112 206.080-112 11.712-16.448 40.128-16.448 51.84 0 0 0 81.28 112 206.080 112 125.76 0 216-102.592 216-256 0-154.88-111.68-283.392-228.032-374.016-110.080-85.76-208.64-126.976-219.968-131.968-11.392 4.992-109.888 46.208-220.032 131.968-116.288 90.624-227.968 219.136-227.968 374.016 0 153.408 90.24 256 216 256z" />
<glyph unicode="&#xe937;" glyph-name="mbri-help" d="M32 384h64c42.88 0 42.752-64 0-64h-64c-42.368 0-43.008 64 0 64zM32 576h64c42.88 0 42.752-64 0-64h-64c-42.368 0-43.008 64 0 64zM32 768h64c42.88 0 42.752-64 0-64h-64c-42.368 0-43.008 64 0 64zM192 800v-512c0-75.2 57.6-96 128-96v-160c0.96-24.448 36.288-38.848 54.016-22.016l181.952 182.016h372.032c52.608 0 96 43.328 96 96v512c0 52.608-43.392 96-96 96h-640c-57.088 0-96-43.392-96-96zM288 832h640c18.304 0 32-13.696 32-32v-512c0-18.304-13.696-32-32-32h-384c-8 0-16-2.688-22.016-8l-137.984-137.92v113.92c0 16.768-15.232 32-32 32-55.936 0-96 0.64-96 32v512c0 18.304 13.696 32 32 32z" />
<glyph unicode="&#xe938;" glyph-name="mbri-home" d="M64 544v-512c0-16.768 15.232-32 32-32h256c16.768 0 32 15.232 32 32v224c0 71.424 56.512 128 128 128s128-56.576 128-128v-224c0-16.768 15.232-32 32-32h256c16.768 0 32 15.232 32 32v512c0 42.24-64 42.496-64 0v-480h-192v192c0 105.728-86.208 192-192 192s-192-86.272-192-192v-192h-192v480c0 42.88-64 39.68-64 0zM400.128 863.872l-383.68-226.752c-36.672-21.76-2.688-77.184 32-56.704l383.552 226.624c62.592 36.928 98.688 36.16 160 0l383.552-226.752c33.792-20.032 69.376 34.56 32 56.64l-383.68 226.944c-73.6 43.52-153.792 41.344-223.744 0z" />
<glyph unicode="&#xe939;" glyph-name="mbri-hot-cup" d="M576 928v-64c0-41.92-64-43.776-64 0v64c0 43.328 64 41.728 64 0zM384 928v-64c0-41.92-64-43.776-64 0v64c0 43.328 64 41.728 64 0zM800 576h32c71.040 0 128-56.96 128-128s-56.96-128-128-128h-32c-42.048 0-41.408-64 0-64h32c105.6 0 192 86.4 192 192s-86.4 192-192 192h-32c-42.24 0-41.472-64 0-64zM160 640h384c42.88 0 42.752-64 0-64h-384c-43.136 0-42.24 64 0 64zM192 928v-64c0-41.92-64-43.776-64 0v64c0 43.328 64 40.192 64 0zM672-64c43.392 0 42.24 64 0 64h-118.016c90.368 63.68 150.016 168.96 150.016 288v448c0 44.48-64 39.872-64 0v-448c0-160.128-127.872-288-288-288s-288 127.872-288 288v448c0 42.432-64 41.792-64 0v-448c0-119.040 59.648-224.32 150.016-288h-118.016c-42.112 0-42.496-64 0-64z" />
<glyph unicode="&#xe93a;" glyph-name="mbri-idea" d="M823.232 804.48l-45.248-45.44c-30.336-30.208 15.36-75.072 45.248-45.184l45.248 45.248c29.632 29.696-14.912 75.648-45.248 45.44zM928 448h-64c-42.88 0-42.24-64 0-64h64c41.856 0 42.88 64 0 64zM96 448h-64c-42.88 0-42.24-64 0-64h64c41.856 0 42.88 64 0 64zM352 0h256c42.048 0 43.136-64 0-64h-256c-41.92 0-43.2 64 0 64zM512 928v-64c0-42.88-64-42.24-64 0v64c0 41.856 64 42.88 64 0zM480 768c-163.008 0-288-161.408-288-352s124.992-352 288-352c163.008 0 288 161.408 288 352s-124.992 352-288 352zM480 704c119.68 0 224-125.12 224-288 0-115.84-52.48-211.84-126.080-257.92 1.28 68.032 4.032 121.088 12.16 155.904 9.216 40.32 20.992 61.12 39.936 80 31.552 31.552-20.288 69.76-44.032 46.080-27.072-27.136-46.72-63.36-57.984-112-11.008-47.872-15.808-110.336-16-196.032-18.048-5.952-45.248-5.12-64 0-0.192 85.76-4.992 148.16-16 195.968-11.2 48.64-30.912 84.928-57.984 112-25.408 25.408-74.24-15.744-44.032-46.080 18.944-18.816 30.72-39.68 40-80 8.128-34.752 10.88-87.808 12.16-155.904-73.664 46.144-126.144 142.144-126.144 257.984 0 162.88 104.32 288 224 288zM136.768 804.48l45.248-45.44c30.336-30.208-15.36-75.072-45.248-45.184l-45.248 45.184c-29.632 29.696 14.912 75.648 45.248 45.44z" />
<glyph unicode="&#xe93b;" glyph-name="mbri-image-gallery" d="M702.72 504.576l-128.256-110.976-76.16 50.432c-12.48 9.088-31.488 7.232-42.048-3.968l-64.192-64.512c-26.24-26.432 17.024-75.648 46.080-46.4l46.080 46.4 74.24-50.432c11.264-7.552 27.52-6.656 37.952 1.92l128.256 110.976 54.080-46.336c30.336-25.728 73.728 23.552 42.048 50.368l-76.16 64.64c-9.984 8.32-32.32 6.4-42.048-2.048zM544 704c-52.672 0-96-43.328-96-96s43.328-96 96-96 96 43.328 96 96-43.328 96-96 96zM544 640c18.048 0 32-13.952 32-32s-13.952-32-32-32c-18.048 0-32 13.952-32 32s13.952 32 32 32zM211.968 638.080l-160-55.808c-41.792-16.128-62.272-63.616-48-103.808l130.112-363.264c15.872-44.672 65.536-58.88 105.984-46.080l89.984 28.032c40.128 12.48 18.752 74.752-19.968 61.888l-90.048-29.952c-13.44-4.288-23.552 1.28-25.984 8l-128 361.344c-3.84 11.136-2.816 19.712 8.064 23.936l160 53.888c42.752 11.52 15.552 75.008-22.016 61.888zM507.264 889.28c-47.616 19.328-103.040-4.16-122.368-51.84l-186.24-459.712c-19.328-47.68 4.928-101.248 52.608-120.576l459.648-186.24c47.68-19.2 100.48 3.2 119.808 50.752l186.24 459.776c19.328 47.68-2.304 102.4-49.92 121.6l-459.776 186.24zM483.264 829.952l459.776-186.24c15.808-6.4 21.12-22.4 14.72-38.272l-186.24-459.712c-6.4-15.872-20.672-21.888-36.48-15.36l-459.84 186.048c-15.744 6.4-23.68 21.376-17.28 37.248l186.24 459.776c6.4 15.808 23.296 22.912 39.040 16.512z" />
<glyph unicode="&#xe93c;" glyph-name="mbri-image-slider" d="M1024 672v-448c0-41.152-64-43.52-64 0v448c0 42.496 64 42.112 64 0zM352 704c-52.672 0-96-43.328-96-96s43.328-96 96-96 96 43.328 96 96-43.328 96-96 96zM352 640c18.048 0 32-13.952 32-32s-13.952-32-32-32c-18.048 0-32 13.952-32 32s13.952 32 32 32zM713.984 503.168l-169.984-169.984-105.984 105.984c-11.776 11.136-32.256 11.136-44.032 0l-128-128c-30.72-30.72 16.128-73.856 44.032-46.080l105.984 106.112 105.984-106.048c11.776-11.072 32.256-11.072 44.032 0l192 192c30.080 30.080-17.28 72.768-44.032 46.080zM64 672v-448c0-41.152-64-43.52-64 0v448c0 42.496 64 42.112 64 0zM256 832c-70.4 0-128-58.432-128-128.832v-512c0-70.4 57.6-127.168 128-127.168h512c70.4 0 128 57.6 128 128v512c0 70.4-57.6 128-128 128zM256 768h512c36.032 0 64-27.968 64-64v-512c0-36.032-27.968-64-64-64h-512c-36.032 0-64 27.968-64 64v512c0 36.032 27.968 64 64 64z" />
<glyph unicode="&#xe93d;" glyph-name="mbri-info" d="M480 576c-52.608 0-96-43.392-96-96v-256c0-52.608 43.392-96 96-96s96 43.392 96 96v256c0 52.608-43.392 96-96 96zM480 512c18.304 0 32-13.696 32-32v-256c0-18.304-13.696-32-32-32s-32 13.696-32 32v256c0 18.304 13.696 32 32 32zM480 832c-52.672 0-96-43.328-96-96s43.328-96 96-96 96 43.328 96 96-43.328 96-96 96zM480 768c18.048 0 32-13.952 32-32s-13.952-32-32-32c-18.048 0-32 13.952-32 32s13.952 32 32 32zM480 960c-264.704 0-480-215.296-480-480s215.296-480 480-480 480 215.296 480 480-215.296 480-480 480zM480 896c230.144 0 416-185.856 416-416s-185.856-416-416-416-416 185.856-416 416 185.856 416 416 416z" />
<glyph unicode="&#xe93e;" glyph-name="mbri-italic" d="M549.312 704c-41.088 0-81.536-3.84-119.296-26.048-37.888-22.208-74.688-57.472-105.472-116.352-21.568-40.96 38.72-63.68 55.68-34.048 24 41.984 44.928 67.84 65.6 84.224-9.088-100.288-58.88-251.52-93.44-381.056-19.2-71.488-33.792-135.232-32.448-188.48 0.064-69.76 37.184-106.24 90.176-106.24 48.448 0 88.832 5.248 125.312 28.16 36.48 22.72 67.712 59.2 99.392 116.224 23.040 41.6-37.632 63.040-55.68 32-25.728-43.904-46.336-70.4-65.664-86.144 8.96 100.224 58.88 253.248 93.44 382.976 19.2 71.488 33.6 137.216 33.024 190.528-0.704 68.8-29.696 104.256-90.624 104.256zM576 597.76c0.512-39.040-12.032-102.848-30.72-172.48-36.736-137.792-96.128-302.72-97.408-423.040-51.328-7.040-63.36 5.504-63.872 42.048-0.512 38.912 11.52 100.8 30.080 170.432 36.672 137.152 95.616 300.8 97.472 421.12 55.936 10.688 64-5.12 64.448-38.144zM608 960c-52.672 0-96-43.328-96-96 0-52.608 43.328-96 96-96s96 43.392 96 96c0 52.672-43.328 96-96 96zM608 896c18.048 0 32-13.952 32-32s-13.952-32-32-32c-18.048 0-32 13.952-32 32s13.952 32 32 32z" />
<glyph unicode="&#xe93f;" glyph-name="mbri-key" d="M320 704c0-35.328-28.672-64-64-64s-64 28.672-64 64 28.672 64 64 64 64-28.672 64-64zM320 960c-176.384 0-320-143.616-320-320 0-176.32 143.616-320 320-320 43.2 0 81.28 14.592 118.016 30.080l339.968-340.096c5.76-6.016 13.76-9.6 22.016-9.984h128c16.768 0 32 15.232 32 32v128c0.192 8.96-3.52 17.92-9.984 24l-64 64c-6.016 5.312-14.080 8.192-22.016 8h-32v32c0.192 8.96-3.52 17.92-9.984 24l-64 64c-6.016 5.312-14.080 8.192-22.016 8h-32v32c0.192 8.96-3.52 17.92-9.984 24l-84.096 84.032c15.232 36.224 30.080 73.28 30.080 115.968 0 176.384-143.616 320-320 320zM320 896c141.76 0 256-114.24 256-256 0-40.832-10.24-76.608-28.032-112-6.4-12.16-3.84-28.416 6.016-38.016l86.016-85.952v-52.032c0-16.768 15.232-32 32-32h52.032l43.968-43.968v-52.032c0-16.768 15.232-32 32-32h52.032l43.968-43.968v-84.032h-81.92l-344.128 344c-9.28 8.96-24.32 11.52-36.032 6.016-35.008-17.536-73.6-30.016-113.92-30.016-141.76 0-256 114.24-256 256s114.24 256 256 256z" />
<glyph unicode="&#xe940;" glyph-name="mbri-laptop" d="M160 896c-52.608 0-96-43.392-96-96v-448c0-43.328 64-40.96 64 0v448c0 18.304 13.696 32 32 32h704c18.304 0 32-13.696 32-32v-448c0-42.368 64-42.112 64 0v448c0 52.608-43.392 96-96 96zM0 224c0-88.064 71.936-160 160-160h704c88.064 0 160 71.936 160 160 0 16.768-15.232 32-32 32h-960c-23.36 0-32-15.552-32-32zM78.080 192h867.84c-13.888-35.52-40.96-64-81.92-64h-704c-40.96 0-68.032 28.48-81.92 64z" />
<glyph unicode="&#xe941;" glyph-name="mbri-layers" d="M928 704c18.304 0 32-13.696 32-32v-640c0-18.304-13.696-32-32-32h-640c-18.304 0-32 13.696-32 32 0 41.984-64 42.496-64 0 0-52.608 43.392-96 96-96h640c52.608 0 96 43.392 96 96v640c0 52.608-43.392 96-96 96-42.88 0-40.96-64 0-64zM96 960c-52.608 0-96-43.392-96-96v-640c0-52.608 43.392-96 96-96h640c52.608 0 96 43.392 96 96v640c0 52.608-43.392 96-96 96zM96 896h640c18.304 0 32-13.696 32-32v-640c0-18.304-13.696-32-32-32h-640c-18.304 0-32 13.696-32 32v640c0 18.304 13.696 32 32 32z" />
<glyph unicode="&#xe942;" glyph-name="mbri-left-right" d="M799.872 192h-640c-43.648 0-41.28 64 0 64h640c42.112 0 42.432-64 0-64zM1015.36 246.080l-128 128.128c-29.696 29.76-74.88-15.104-46.080-44.032l106.048-106.24-105.984-106.112c-29.44-29.44 16.256-73.792 46.080-44.032l128 128.192c11.264 11.328 11.328 32.64 0 44.032zM224 640h640c43.648 0 41.28 64 0 64h-640c-42.112 0-42.432-64 0-64zM8.512 694.080l128 128.128c29.696 29.76 74.88-15.104 46.080-44.032l-106.112-106.176 105.984-106.048c29.44-29.44-16.256-73.856-46.080-44.16l-128 128.256c-11.264 11.328-11.328 32.64 0 44.032z" />
<glyph unicode="&#xe943;" glyph-name="mbri-left" d="M456.832 950.4l-448.512-448.192c-11.072-11.776-11.072-32.256 0-44.032l448.512-448.32c30.080-29.952 74.496 15.68 46.080 44.032l-426.496 426.304 426.496 426.176c28.032 28.032-16.64 73.6-46.080 44.16zM992 448h-768c-41.728 0-43.84 64 0 64h768c43.2 0 40.96-64 0-64z" />
<glyph unicode="&#xe944;" glyph-name="mbri-letter" d="M143.68 582.4l292.16-176.768c51.584-31.168 108.8-26.24 152.128 0l292.224 176.768c37.504 22.72 0.832 72.832-32 53.12l-294.272-176.896c-27.648-16.64-58.048-15.616-84.096 0l-294.144 176.896c-32.128 19.328-69.44-30.4-32-53.12zM96 768c-52.608 0-96-43.392-96-96v-448c0-52.608 43.392-96 96-96h832c52.608 0 96 43.392 96 96v448c0 52.608-43.392 96-96 96zM96 704h832c18.304 0 32-13.696 32-32v-448c0-18.304-13.696-32-32-32h-832c-18.304 0-32 13.696-32 32v448c0 18.304 13.696 32 32 32z" />
<glyph unicode="&#xe945;" glyph-name="mbri-like" d="M608 960c-52.16 0-96-43.392-96-96 0-52.032-13.44-103.68-36.224-145.92-19.456-36.48-39.040-64.128-77.056-86.080-33.92-19.52-2.816-70.272 33.472-52.608 38.144 18.688 74.24 58.24 101.12 108.608 27.008 50.304 42.688 110.72 42.688 176 0 18.304 13.888 32 32 32s32-13.696 32-32c0-111.552-22.592-180.928-58.88-238.080-12.8-18.944 3.072-49.6 25.856-49.92h321.024c18.112 0 32-13.696 32-32s-13.888-32-32-32c-42.24 0-42.24-64 0-64 18.112 0 32-13.696 32-32s-13.888-32-32-32c-41.856 0-42.88-64 0-64 18.112 0 32-13.696 32-32s-13.888-32-32-32c-41.6 0-42.88-64 0-64 18.112 0 32-13.696 32-32s-13.888-32-32-32h-507.712c-47.232 0-48.256-64 0-64h507.712c52.16 0 96 43.392 96 96 0 24.704-11.136 46.912-26.56 64 16.128 17.28 26.56 38.656 26.56 64 0 24.704-11.136 46.912-26.56 64 16.128 17.28 26.56 38.656 26.56 64 0 24.704-11.136 46.912-26.56 64 16.128 17.28 26.56 38.656 26.56 64 0 52.608-43.84 96-96 96h-275.392c27.712 60.416 51.392 128.96 51.392 224 0 52.608-43.84 96-96 96zM96 640c-52.608 0-96-43.392-96-96v-448c0-52.608 43.392-96 96-96h128c52.608 0 96 43.392 96 96v448c0 52.608-43.392 96-96 96zM96 576h128c18.304 0 32-13.696 32-32v-448c0-18.304-13.696-32-32-32h-128c-18.304 0-32 13.696-32 32v448c0 18.304 13.696 32 32 32z" />
<glyph unicode="&#xe946;" glyph-name="mbri-link" d="M672 640h96c106.88 0 192-85.12 192-192s-85.12-192-192-192h-128c-106.88 0-192 85.12-192 192v32c0 42.88-64 41.6-64 0v-32c0-141.248 114.752-256 256-256h128c141.248 0 256 114.752 256 256s-114.752 256-256 256h-96c-41.856 0-42.432-64 0-64zM256 704c-141.248 0-256-114.752-256-256s114.752-256 256-256h96c42.88 0 41.6 64 0 64h-96c-106.88 0-192 85.12-192 192s85.12 192 192 192h128c106.88 0 192-85.12 192-192v-32c0-43.072 64-41.856 64 0v32c0 141.248-114.752 256-256 256z" />
<glyph unicode="&#xe947;" glyph-name="mbri-lock" d="M480 384c-52.608 0-96-43.392-96-96v-128c0-52.608 43.392-96 96-96s96 43.392 96 96v128c0 52.608-43.392 96-96 96zM480 320c18.304 0 32-13.696 32-32v-128c0-18.304-13.696-32-32-32s-32 13.696-32 32v128c0 18.304 13.696 32 32 32zM480 960c-158.976 0-288-129.024-288-288 0-44.8 64-40.192 64 0 0 124.672 99.328 224 224 224s224-99.328 224-224c0-43.52 64-41.6 64 0 0 158.976-129.024 288-288 288zM288 576c-88.064 0-160-71.936-160-160v-320c0-88.064 71.936-160 160-160h384c88.064 0 160 71.936 160 160v320c0 88.064-71.936 160-160 160zM288 512h384c53.76 0 96-42.24 96-96v-320c0-53.76-42.24-96-96-96h-384c-53.76 0-96 42.24-96 96v320c0 53.76 42.24 96 96 96z" />
<glyph unicode="&#xe948;" glyph-name="mbri-login" d="M437.888 631.936l128.768-128.256c12.352-12.032 12.352-34.304 0-46.208l-128.768-128.32c-28.928-28.8-73.856 17.28-44.16 46.080l106.56 104.32-106.624 106.24c-30.336 30.272 18.432 71.936 44.288 46.080zM352 512h-320c-42.56 0-42.88-64 0-64h320c42.688 0 42.24 64 0 64zM384 960c-70.4 0-128-57.6-128-128v-160c0-42.56 64-42.624 64 0v160c0 36.032 27.968 64 64 64h512c36.032 0 64-27.968 64-64v-704c0-36.032-27.968-64-64-64h-512c-36.032 0-64 27.968-64 64v160c0 42.624-64 41.984-64 0v-160c0-70.4 57.6-128 128-128h512c70.4 0 128 57.6 128 128v704c0 70.4-57.6 128-128 128z" />
<glyph unicode="&#xe949;" glyph-name="mbri-logout" d="M138.048 631.936l-128.768-128.256c-12.352-12.032-12.352-34.304 0-46.208l128.768-128.32c28.928-28.8 73.856 17.28 44.288 46.080l-106.816 104.384 106.688 106.24c30.272 30.272-18.432 71.936-44.352 46.080zM224 512h320c42.56 0 42.88-64 0-64h-320c-42.688 0-42.24 64 0 64zM384 960c-70.4 0-128-57.6-128-128v-160c0-42.56 64-42.624 64 0v160c0 36.032 27.968 64 64 64h512c36.032 0 64-27.968 64-64v-704c0-36.032-27.968-64-64-64h-512c-36.032 0-64 27.968-64 64v160c0 42.624-64 41.984-64 0v-160c0-70.4 57.6-128 128-128h512c70.4 0 128 57.6 128 128v704c0 70.4-57.6 128-128 128z" />
<glyph unicode="&#xe94a;" glyph-name="mbri-magic-stick" d="M992.192 576h-64c-42.24 0-42.624 64 0 64h64c42.112 0 42.752-64 0-64zM640 928v-64c0-42.24-64-42.624-64 0v64c0 42.112 64 42.752 64 0zM868.48 264.96l-45.312 45.184c-29.888 29.888-75.392-15.104-45.248-45.248l45.248-45.312c29.76-29.76 75.52 15.040 45.248 45.248zM240.128 763.136l55.424-32c36.48-21.12 4.864-76.8-32-55.424l-55.488 32c-36.48 20.992-4.992 76.8 32 55.36zM450.432 797.056l15.104-169.856-130.624-96.64c-25.472-18.752-14.72-51.84 9.6-57.152l163.84-36.224 51.2-158.72c8-21.952 42.88-26.24 55.872-6.784l83.648 145.088 165.44 1.152c23.040 1.728 36.864 34.56 22.144 52.736l-109.696 124.16 51.072 162.368c0.448 1.28 0.768 2.56 1.024 3.968 2.752 22.72-24.448 42.88-44.928 33.28l-147.584-67.008-137.152 98.304c-18.048 12.928-51.84 5.568-48.896-28.672zM519.936 731.904l91.264-68.864c8.96-5.76 20.928-6.528 30.528-1.92l103.296 47.36-35.2-110.080c-2.944-10.88 0.256-23.552 8.32-31.552l72.96-82.88-109.76-1.536c-11.84 0.64-23.68-6.528-29.248-17.28l-56.32-95.808-33.92 105.856c-2.944 11.008-11.968 20.16-22.848 23.040l-111.36 24 92.16 67.2c8.64 6.208 13.888 17.024 13.44 27.776l-13.056 114.752zM394.112 375.36l-384.384-384.512c-29.952-29.952 16.256-73.856 44.032-46.080l384.384 384.448c30.4 30.336-16.768 73.28-44.032 46.080z" />
<glyph unicode="&#xe94b;" glyph-name="mbri-map-pin" d="M512 832c-70.4 0-128-57.6-128-128s57.6-128 128-128 128 57.6 128 128-57.6 128-128 128zM512 768c35.712 0 64-28.288 64-64s-28.288-64-64-64-64 28.288-64 64 28.288 64 64 64zM371.968 372.672c57.28-97.28 116.032-170.368 116.032-170.368 12.544-14.464 38.656-13.44 49.92 2.048 0 0 56.96 72.32 114.112 170.368 57.088 97.984 115.968 219.2 115.968 328.64 0 141.44-115.008 256.64-256 256.64s-256-113.024-256-256c0-113.28 58.752-233.984 115.968-331.328zM512 895.872c106.432 0 192-85.76 192-192.448 0-84.672-53.12-202.624-108.032-296.64-41.984-72.064-66.688-103.104-83.968-126.336-17.152 22.528-41.856 52.672-84.032 124.288-54.72 93.184-107.968 210.56-107.968 298.624 0 106.88 85.568 192.64 192 192.64zM129.472 548.992l-63.552-447.872c-12.992-92.16 71.424-165.952 158.080-165.952h576c84.16 0 171.328 71.488 158.080 165.952l-63.36 447.808c-6.080 43.008-67.52 29.248-61.952-10.048l63.232-447.744c8.128-57.472-53.952-91.968-96-91.968h-576c-55.808 0-102.208 48-96 91.968l63.488 447.744c6.208 43.52-56.128 51.2-62.080 10.048z" />
<glyph unicode="&#xe94c;" glyph-name="mbri-menu" d="M32 192h960c42.112 0 43.008-64 0-64h-960c-42.56 0-42.24 64 0 64zM32 512h960c42.112 0 43.008-64 0-64h-960c-42.56 0-42.24 64 0 64zM32 832h960c42.112 0 43.008-64 0-64h-960c-42.56 0-42.24 64 0 64z" />
<glyph unicode="&#xe94d;" glyph-name="mbri-mobile" d="M480 128h64c42.688 0 42.112-64 0-64h-64c-42.368 0-42.048 64 0 64zM288 960c-52.608 0-96-43.392-96-96v-832c0-52.608 43.392-96 96-96h448c52.608 0 96 43.392 96 96v832c0 52.608-43.392 96-96 96zM288 896h448c18.304 0 32-13.696 32-32v-832c0-18.304-13.696-32-32-32h-448c-18.304 0-32 13.696-32 32v832c0 18.304 13.696 32 32 32z" />
<glyph unicode="&#xe94e;" glyph-name="mbri-mobile2" d="M576 128c0-35.328-28.672-64-64-64s-64 28.672-64 64 28.672 64 64 64 64-28.672 64-64zM480 832h64c43.52 0 41.984-64 0-64h-64c-43.136 0-42.048 64 0 64zM288 960c-52.608 0-96-43.392-96-96v-832c0-52.608 43.392-96 96-96h448c52.608 0 96 43.392 96 96v832c0 52.608-43.392 96-96 96zM288 896h448c18.304 0 32-13.696 32-32v-832c0-18.304-13.696-32-32-32h-448c-18.304 0-32 13.696-32 32v832c0 18.304 13.696 32 32 32z" />
<glyph unicode="&#xe94f;" glyph-name="mbri-mobirise" d="M599.808 704.448c96.384-25.856 168.192-114.816 168.192-224.448 0-109.76-71.808-198.72-168.192-224.64-41.408-11.072-24.128-72.96 16-62.080 124.288 33.28 216.192 148.736 216.192 286.72 0 137.856-91.904 253.248-216.192 286.592-43.072 11.52-54.016-51.968-16-62.080zM841.856 758.976l45.248 45.184c30.72 30.592 75.136-15.488 45.44-45.248l-45.312-45.44c-29.568-29.568-75.264 15.232-45.184 45.312zM576 928v-64c0-43.264 64-42.112 64 0v64c0 41.92-64 42.496-64 0zM928 448h64c43.328 0 42.24 64 0 64h-64c-41.856 0-42.432-64 0-64zM841.856 200.96l45.248-45.184c30.72-30.592 75.136 15.36 45.44 45.248l-45.312 45.248c-29.568 29.632-75.264-15.232-45.184-45.248zM576 96v-64c0-43.264 64-42.112 64 0v64c0 41.92-64 42.496-64 0zM224 192h64c43.264 0 42.24-64 0-64h-64c-41.92 0-42.496 64 0 64zM96 896c-52.608 0-96-43.392-96-96v-704c0-52.672 43.392-96 96-96h320c52.608 0 96 43.328 96 96v704c0 52.608-43.392 96-96 96zM96 832h320c18.304 0 32-13.76 32-32v-704c0-18.304-13.696-32-32-32h-320c-18.304 0-32 13.696-32 32v704c0 18.24 13.696 32 32 32z" />
<glyph unicode="&#xe950;" glyph-name="mbri-more-horizontal" d="M896 576c-70.4 0-128-57.6-128-128s57.6-128 128-128 128 57.6 128 128-57.6 128-128 128zM896 512c35.712 0 64-28.288 64-64s-28.288-64-64-64-64 28.288-64 64 28.288 64 64 64zM128 576c-70.4 0-128-57.6-128-128s57.6-128 128-128 128 57.6 128 128-57.6 128-128 128zM128 512c35.712 0 64-28.288 64-64s-28.288-64-64-64-64 28.288-64 64 28.288 64 64 64zM512 576c-70.4 0-128-57.6-128-128s57.6-128 128-128 128 57.6 128 128-57.6 128-128 128zM512 512c35.712 0 64-28.288 64-64s-28.288-64-64-64-64 28.288-64 64 28.288 64 64 64z" />
<glyph unicode="&#xe951;" glyph-name="mbri-more-vertical" d="M640 64c0 70.4-57.6 128-128 128s-128-57.6-128-128 57.6-128 128-128 128 57.6 128 128zM576 64c0-35.712-28.288-64-64-64s-64 28.288-64 64 28.288 64 64 64 64-28.288 64-64zM640 832c0 70.4-57.6 128-128 128s-128-57.6-128-128 57.6-128 128-128 128 57.6 128 128zM576 832c0-35.712-28.288-64-64-64s-64 28.288-64 64 28.288 64 64 64 64-28.288 64-64zM640 448c0 70.4-57.6 128-128 128s-128-57.6-128-128 57.6-128 128-128 128 57.6 128 128zM576 448c0-35.712-28.288-64-64-64s-64 28.288-64 64 28.288 64 64 64 64-28.288 64-64z" />
<glyph unicode="&#xe952;" glyph-name="mbri-music" d="M792.192 766.912l-256.64-64c-21.12-5.248-26.624-23.040-22.080-38.4 4.608-15.36 19.2-28.16 38.208-23.488l256.512 64c41.792 10.368 23.488 71.68-16 61.888zM920 960l-512-128c-13.952-3.584-24.448-17.6-24-32v-585.984c-34.56 25.728-79.68 41.984-128 41.984-102.208 0-192-67.712-192-160s89.792-160 192-160 192 67.712 192 160v680l448 112v-545.92c-34.56 25.6-79.68 41.92-128 41.92-102.208 0-192-67.712-192-160s89.792-160 192-160 192 67.712 192 160v704c0.64 19.84-20.864 36.928-40 32zM768 320c74.56 0 128-46.912 128-96s-53.44-96-128-96-128 46.912-128 96 53.44 96 128 96zM256 192c74.56 0 128-46.912 128-96s-53.44-96-128-96-128 46.912-128 96 53.44 96 128 96z" />
<glyph unicode="&#xe953;" glyph-name="mbri-new-file" d="M224 960c-52.608 0-96-43.392-96-96v-832c0-52.608 43.392-96 96-96h576c52.608 0 96 43.392 96 96v704c0.192 8.96-3.52 17.92-9.984 24l-192 192c-6.016 5.312-14.080 8.192-22.016 8h-448zM224 896h416v-160c0-16.768 15.232-32 32-32h160v-672c0-18.304-13.696-32-32-32h-576c-18.304 0-32 13.696-32 32v832c0 18.304 13.696 32 32 32zM704 851.968l84.032-83.968h-84.032v84.032z" />
<glyph unicode="&#xe954;" glyph-name="mbri-numbered-list" d="M73.984 951.488l-64-64c-30.72-30.72 17.472-72.704 44.032-46.080l9.984 9.984v-115.392c0-43.648 64-40.704 64 0v191.488c0 36.096-39.040 39.040-54.016 24zM352 896h640c43.328 0 41.92-64 0-64h-640c-41.92 0-43.392 64 0 64zM352 512h640c43.328 0 41.92-64 0-64h-640c-41.92 0-43.392 64 0 64zM352 128h640c43.328 0 41.92-64 0-64h-640c-41.92 0-43.392 64 0 64zM96 639.168c-52.608 0-96-43.328-96-96 0-42.496 64-40.064 64 0 0 18.304 13.696 32 32 32s32-13.696 32-32c0-72.128-128-76.8-128-191.168 0-16.768 15.232-32 32-32h128c42.24 0 43.136 64 0 64h-84.032c0.064 24.064 116.032 60.16 116.032 159.168 0 52.672-43.392 96-96 96zM96 256c-52.608 0-96-43.328-96-96 0-44.8 64-41.216 64 0 0 18.048 13.952 32 32 32s32-13.952 32-32c0-18.048-13.952-32-32-32-43.712 0-40.32-64 0-64 18.048 0 32-13.952 32-32s-13.952-32-32-32c-18.048 0-32 13.952-32 32 0 44.928-64 42.048-64 0 0-52.608 43.392-96 96-96s96 43.392 96 96c0 24.704-10.432 46.912-25.984 64 15.552 17.088 25.984 39.296 25.984 64 0 52.672-43.392 96-96 96z" />
<glyph unicode="&#xe955;" glyph-name="mbri-opened-folder" d="M96 896c-52.608 0-96-43.392-96-96v-192c0-40.832 64-42.432 64 0v192c0 18.304 13.696 31.872 32 32h177.92l150.080-180.032c5.76-7.168 14.72-11.712 24-11.968h480c42.368 0 42.88 64 0 64h-464l-152 182.016c-6.080 6.4-15.040 10.24-24 9.984zM159.36 576c-56.32 0-89.728-50.816-96-89.984l-62.080-384c-9.984-60.8 45.12-102.016 93.952-102.016h769.472c57.088 0 89.6 51.584 96.192 92.032l62.080 384c10.368 63.744-43.328 99.968-94.080 99.968zM159.36 512h769.408c20.928 0 33.728-16.192 32-25.984l-64-384c-4.224-25.216-19.456-38.016-32-38.016h-769.536c-21.12 0-34.56 13.44-32.128 28.032l64.128 384c4.288 25.6 18.816 35.968 32 35.968z" />
<glyph unicode="&#xe956;" glyph-name="mbri-pages" d="M352 960c-52.608 0-96-43.392-96-96v-704c0-52.608 43.392-96 96-96h448c52.608 0 96 43.392 96 96v576c0.192 8.96-3.52 17.92-9.984 24l-192 192c-6.016 5.312-14.080 8.192-22.016 8h-320zM352 896h288v-160c0-16.768 15.232-32 32-32h160v-544c0-18.304-13.696-32-32-32h-448c-18.304 0-32 13.696-32 32v704c0 18.304 13.696 32 32 32zM704 851.968l84.032-83.968h-84.032v84.032zM128 800v-768c0-52.608 43.392-96 96-96h512c42.752 0 41.856 64 0 64h-512c-18.304 0-32 13.696-32 32v768c0 42.88-64 41.28-64 0z" />
<glyph unicode="&#xe957;" glyph-name="mbri-paper-plane" d="M969.984 951.168l-560-560-304.128 150.016 706.176 294.016c41.152 17.152 11.648 72.832-24.064 57.984l-770.112-320c-22.4-9.472-23.68-47.040-2.048-57.984l386.112-192c11.776-5.504 26.88-3.008 36.096 6.016l465.92 465.92-295.936-739.904-97.28 244.736c-15.616 39.424-74.624 12.928-59.968-24l127.168-320.768c9.088-24.32 51.072-24.32 60.16 0l384 960c11.52 28.8-27.84 60.16-52.096 35.968z" />
<glyph unicode="&#xe958;" glyph-name="mbri-paperclip" d="M588.16 889.728l-512-513.024c-101.248-101.44-101.504-263.424 0-364.8 101.376-101.12 264.96-101.376 366.080 0l444.16 444.928c30.72 30.72-16 74.112-43.968 46.080l-446.080-446.848c-77.312-77.44-196.48-77.44-274.112 0-77.44 77.312-77.44 199.040 0 276.48l512 513.152c65.152 65.28 155.52 68.16 224.128 19.712 68.672-48.32 35.84-117.76-14.080-167.936l-548.16-551.040c-28.16-28.288-58.496-25.6-84.032 0-25.6 25.472-24.64 59.392 0 84.096l482.176 482.944c30.72 30.72-16.128 74.112-44.032 46.080l-482.176-484.992c-54.144-54.4-52.032-120.32 0-172.416 52.032-51.968 118.912-53.248 172.16 0l550.144 551.040c96 96.256 90.112 203.2-1.536 268.416-91.712 65.28-226.304 42.496-300.608-31.872z" />
<glyph unicode="&#xe959;" glyph-name="mbri-photo" d="M713.6 503.040l-233.088-235.2-105.6 108.032c-11.712 11.072-32.192 11.072-43.904 0l-127.488-127.104c-33.024-32.896 12.288-77.184 43.84-45.76l105.6 105.344 105.6-108.16c11.712-10.88 32.128-10.88 43.84 0l233.152 235.328 105.6-105.344c30.208-30.208 76.16 13.44 43.84 45.632l-127.552 127.232c-12.416 12.416-32.256 11.52-43.84 0zM352 832c-88 0-160-72-160-160s72-160 160-160 160 72 160 160-72 160-160 160zM352 768c53.376 0 96-42.624 96-96s-42.624-96-96-96-96 42.624-96 96 42.624 96 96 96zM160 128h704c42.88 0 42.496-64 0-64h-704c-42.88 0-41.728 64 0 64zM96 960c-52.608 0-96-43.392-96-96v-832c0-52.608 43.392-96 96-96h832c52.608 0 96 43.392 96 96v832c0 52.608-43.392 96-96 96zM96 896h832c18.304 0 32-13.696 32-32v-832c0-18.304-13.696-32-32-32h-832c-18.304 0-32 13.696-32 32v832c0 18.304 13.696 32 32 32z" />
<glyph unicode="&#xe95a;" glyph-name="mbri-photos" d="M584.96 503.040c-56.192-56.32-168.96-171.136-168.96-171.136l-105.216 107.776c-11.648 10.88-32 10.88-43.712 0l-127.232-127.104c-33.6-33.6 12.16-77.248 43.776-45.632l105.28 105.216 105.344-107.84c11.648-10.88 32-10.88 43.648 0l168.96 171.328 105.344-105.216c29.696-29.632 78.72 10.752 43.712 45.696l-127.104 126.912c-12.16 12.16-32.256 11.52-43.776 0zM256 832c-70.4 0-128-57.6-128-128s57.6-128 128-128 128 57.6 128 128-57.6 128-128 128zM256 768c35.712 0 64-28.288 64-64s-28.288-64-64-64-64 28.288-64 64 28.288 64 64 64zM128 960c-70.4 0-128-57.6-128-128v-640c0-70.4 57.6-128 128-128h640c70.4 0 128 57.6 128 128v640c0 70.4-57.6 128-128 128zM128 896h640c36.032 0 64-27.968 64-64v-640c0-36.032-27.968-64-64-64h-640c-36.032 0-64 27.968-64 64v640c0 36.032 27.968 64 64 64zM960 736v-672c0-36.032-27.968-64-64-64h-672c-42.112 0-42.688-64 0-64h672c70.4 0 128 57.6 128 128v672c0 43.84-64 40.832-64 0z" />
<glyph unicode="&#xe95b;" glyph-name="mbri-pin" d="M512 768c-106.24 0-192-86.528-192-192s85.76-192 192-192 192 86.528 192 192-85.76 192-192 192zM512 704c71.424 0 128-56.96 128-128s-56.576-128-128-128-128 56.96-128 128c0 71.040 56.576 128 128 128zM512 960c-211.712 0-384-172.288-384-384 0-400.768 366.080-633.984 366.080-633.984 10.432-7.168 25.408-7.168 35.84 0 0 0 366.080 235.904 366.080 633.984 0 211.712-172.288 384-384 384zM512 896c177.088 0 320-142.848 320-320 0-339.712-288.384-542.208-320-564.032-31.808 21.76-320 221.632-320 564.032 0 177.152 142.912 320 320 320z" />
<glyph unicode="&#xe95c;" glyph-name="mbri-play" d="M80 899.2l788.032-444.032c48.192-27.136 32.256-64.896 1.92-81.92l-617.792-349.312c-83.2-46.784-124.16-38.976-124.16 40.064v672c0 40.064-64 42.368-64 0v-672c0-146.176 118.528-152.192 217.984-96l618.048 349.184c80.256 45.44 79.168 149.376 0 193.92l-788.032 444.224c-36.48 20.352-67.392-36.288-32-56.128z" />
<glyph unicode="&#xe95d;" glyph-name="mbri-plus" d="M608 512h320c43.264 0 42.24-64 0-64h-320c-41.856 0-42.688 64 0 64zM512 928v-896c0-43.264-64-42.24-64 0v896c0 41.856 64 42.688 64 0zM32 512h320c43.264 0 42.24-64 0-64h-320c-41.856 0-42.688 64 0 64z" />
<glyph unicode="&#xe95e;" glyph-name="mbri-preview" d="M512 640c-105.6 0-192-86.4-192-192s86.4-192 192-192 192 86.4 192 192-86.4 192-192 192zM512 576c71.040 0 128-56.96 128-128s-56.96-128-128-128c-71.040 0-128 56.96-128 128s56.96 128 128 128zM3.968 465.152c-5.76-10.624-3.072-24.64 2.048-33.92 98.432-179.072 287.36-303.232 505.984-303.232 219.52 0 409.856 124.928 508.032 305.28 5.12 9.408 4.16 24.192 0 32-98.24 180.288-288.64 302.72-508.032 302.72s-410.88-121.792-508.032-302.848zM512 704c189.44 0 352.64-102.4 441.984-254.848-89.344-152.448-252.8-257.152-441.984-257.152-189.248 0-352.64 104.704-441.984 257.152 89.344 152.32 252.544 254.848 441.984 254.848z" />
<glyph unicode="&#xe95f;" glyph-name="mbri-print" d="M256 960c-34.88 0-64-29.12-64-64v-96c0-42.624 64-42.24 64 0v96h512v-96c0-41.6 64-43.136 64 0v96c0 34.88-29.12 64-64 64zM96 704c-52.608 0-96-43.392-96-96v-320c0-52.608 43.392-96 96-96h96v-192c0-34.88 29.12-64 64-64h512c34.88 0 64 29.12 64 64v192h96c52.608 0 96 43.392 96 96v320c0 52.608-43.392 96-96 96zM96 640h832c18.304 0 32-13.696 32-32v-320c0-18.304-13.696-32-32-32h-96v32c0 41.728-64 42.624-64 0v-288h-512v288c0 42.624-64 42.432-64 0v-32h-96c-18.304 0-32 13.696-32 32v320c0 18.304 13.696 32 32 32zM736 576c-17.664 0-32-14.336-32-32s14.336-32 32-32 32 14.336 32 32-14.336 32-32 32zM864 576c-17.664 0-32-14.336-32-32s14.336-32 32-32 32 14.336 32 32-14.336 32-32 32zM160 448c-42.624 0-41.216-64 0-64h704c42.112 0 43.072 64 0 64zM352 320c-42.24 0-41.6-64 0-64h320c43.008 0 42.24 64 0 64zM352 192c-42.56 0-41.408-64 0-64h320c43.008 0 41.92 64 0 64z" />
<glyph unicode="&#xe960;" glyph-name="mbri-protect" d="M477.12 400.384l-39.68 38.016c-30.336 28.928-72.832-17.472-43.648-46.080l65.472-64c12.928-12.608 36.864-10.624 47.552 4.032l190.080 256.192c25.984 35.072-26.048 72.128-51.2 38.272zM499.968-61.696c-217.856 82.816-371.968 294.272-371.968 542.336v343.040c0 40.128 0.384 104.32 30.912 124.416 30.592 20.032 59.52 7.68 95.104-8.96 59.712-27.712 131.52-51.712 241.92 15.808 10.24 6.4 21.12 6.656 32 0 110.4-67.456 182.208-43.52 241.92-15.68 35.648 16.64 64.64 28.928 95.168 8.96 30.528-19.84 30.912-84.096 30.912-124.288v-342.912c0-248.064-153.92-459.84-372.032-542.336-10.24-3.84-16.768-2.944-23.936 0zM832 480.896v343.040c0 30.592-1.6 51.2-4.032 63.744-3.648 13.76-22.848-2.88-29.952-5.952-55.040-23.488-156.928-59.52-286.080 11.52-129.152-71.36-231.040-35.328-286.080-11.84-7.040 3.072-26.24 19.712-29.888 5.952-2.432-12.48-4.032-33.152-4.032-63.808v-342.912c0-216.96 132.8-400.192 320-476.416 187.2 76.48 320 259.84 320 476.672z" />
<glyph unicode="&#xe961;" glyph-name="mbri-question" d="M512 160c0-17.664-14.336-32-32-32s-32 14.336-32 32 14.336 32 32 32 32-14.336 32-32zM512 767.168c-105.6 0-192-86.4-192-192-0.256-16.896 15.104-32.448 32-32.448s32.256 15.552 32 32.448c0 71.040 56.96 128 128 128s128-56.96 128-128c0-106.752-191.808-112.64-192-288 0-16.896 15.104-32.448 32-32.448s32 15.552 32 32.448c-0.192 134.208 192 137.792 192 288 0 105.6-86.4 192-192 192zM512 960c-283.072 0-512-228.928-512-512s228.928-512 512-512 512 228.928 512 512-228.928 512-512 512zM512 896c248.768 0 448-199.232 448-448s-199.232-448-448-448-448 199.232-448 448 199.232 448 448 448z" />
<glyph unicode="&#xe962;" glyph-name="mbri-quote-left" d="M236.032 64c117.504 0 211.968 101.76 211.968 224 0 95.68-44.672 154.112-78.080 212.032-33.28 57.856-67.84 116.672-49.92 231.232 3.392 20.992-19.456 41.6-40 35.968-181.44-51.968-269.44-226.112-280-385.28-5.248-79.552 11.136-157.824 49.92-217.92 39.040-60.16 103.424-100.032 186.24-100.032zM236.032 128c-62.72 0-103.040 26.944-132.032 72-29.12 45.12-44.48 109.44-40 177.92 8.192 123.52 69.12 250.88 192 307.328-2.368-92.8 28.352-165.76 57.984-217.216 35.968-62.464 70.016-104 70.016-180.032 0-89.856-67.392-160-148.032-160zM812.032 64c117.504 0 211.968 101.76 211.968 224 0 95.68-44.672 154.112-78.080 212.032-33.28 57.856-67.84 116.672-49.92 231.232 3.392 20.992-19.456 41.6-40 35.968-181.376-51.968-269.44-226.112-280-385.28-5.248-79.552 11.136-157.824 49.92-217.92 38.912-60.16 103.36-100.032 186.112-100.032zM812.032 128c-62.72 0-103.040 26.944-132.032 72-29.056 45.056-44.544 109.44-40 177.92 8.192 123.52 68.288 250.88 191.168 307.328-2.368-92.8 29.184-165.76 58.88-217.216 35.776-62.464 69.952-104 69.952-180.032 0-89.856-67.392-160-148.032-160z" />
<glyph unicode="&#xe963;" glyph-name="mbri-quote-right" d="M788.032 832c-117.696 0-212.032-101.76-212.032-224 0-95.68 44.672-154.112 78.080-212.032 33.28-57.856 67.84-116.672 49.92-231.232-3.392-20.992 19.456-41.6 40-35.968 181.376 51.968 269.44 226.112 280 385.28 5.248 79.552-11.136 157.824-49.92 217.984-39.040 60.16-103.424 99.968-186.24 99.968zM788.032 768c62.72 0 102.912-26.944 131.968-72s44.544-109.44 40-177.92c-8.192-123.52-69.12-250.88-192-307.328 2.368 92.8-28.352 165.76-57.984 217.216-35.968 62.464-70.016 104-70.016 180.032 0 89.856 67.392 160 148.032 160zM212.032 832c-117.696 0-212.032-101.76-212.032-224 0-95.68 44.672-154.112 78.080-212.032 33.28-57.856 67.84-116.672 49.92-231.232-3.392-20.992 19.456-41.6 40-35.968 181.44 51.968 269.44 226.112 280 385.28 5.248 79.552-11.136 157.824-49.92 217.984-39.040 60.16-103.424 99.968-186.112 99.968zM212.032 768c62.72 0 102.912-26.944 131.968-72s44.544-109.44 40-177.92c-8.192-123.52-68.288-250.88-191.168-307.328 2.368 92.8-29.184 165.76-58.88 217.216-35.776 62.464-69.952 104-69.952 180.032 0 89.856 67.392 160 148.032 160z" />
<glyph unicode="&#xe964;" glyph-name="mbri-redo" d="M960 672v-160h-160c-40.96 0-43.712-64 0-64h192c16.768 0 32 15.232 32 32v192c0 42.432-64 41.6-64 0zM544 768c-300.16 0-544-243.968-544-544 0-44.8 64-40.128 64 0 0 265.472 214.4 480 480 480 108.992 0 214.592-37.76 300.416-104.96 34.88-27.264 70.912 23.872 38.72 49.792-96.32 77.312-215.616 119.168-339.136 119.168z" />
<glyph unicode="&#xe965;" glyph-name="mbri-refresh" d="M521.6 905.216l106.688-106.24-106.752-104.32c-29.696-28.8 16.64-73.6 44.16-46.080l128.96 128.384c12.352 11.904 12.352 34.176 0 46.080l-128.896 128.32c-28.16 28.16-71.424-19.008-44.16-46.080zM480 832c-165.632 0-416-159.552-416-448 0-247.040 200.96-448 448-448s448 200.96 448 448v32c0 41.856-64 42.048-64 0v-32c0-212.48-171.52-384-384-384s-384 171.52-384 384c0 270.208 235.392 384 352 384 42.56 0 42.24 64 0 64z" />
<glyph unicode="&#xe966;" glyph-name="mbri-responsive" d="M832 160c0-17.664-14.336-32-32-32s-32 14.336-32 32 14.336 32 32 32 32-14.336 32-32zM704 768c-70.4 0-128-57.6-128-128v-512c0-70.4 57.6-128 128-128h192c70.4 0 128 57.6 128 128v512c0 70.4-57.6 128-128 128zM704 704h192c36.032 0 64-27.968 64-64v-512c0-36.032-27.968-64-64-64h-192c-36.032 0-64 27.968-64 64v512c0 36.032 27.968 64 64 64zM160 448h320c43.008 0 42.24-64 0-64h-320c-42.624 0-42.496 64 0 64zM96 960c-52.608 0-96-43.392-96-96v-576c0-52.608 43.392-96 96-96h288v-128h-96c-42.496 0-41.6-64 0-64h192c41.792 0 42.88 64 0 64h-32v128h32c42.56 0 42.112 64 0 64h-384c-18.304 0-32 13.696-32 32v576c0 18.304 13.696 32 32 32h832c18.304 0 32-13.696 32-32 0-41.088 64-43.072 64 0 0 52.608-43.392 96-96 96z" />
<glyph unicode="&#xe967;" glyph-name="mbri-right" d="M567.168 950.4l448.512-448.256c11.136-11.776 11.136-32.256 0-44.032l-448.512-448.32c-30.080-29.952-74.624 15.808-46.080 44.032l426.496 426.368-426.496 426.176c-28.032 28.032 16.64 73.6 46.080 44.16zM32 448h768c41.728 0 43.84 64 0 64h-768c-43.2 0-40.96-64 0-64z" />
<glyph unicode="&#xe968;" glyph-name="mbri-rocket" d="M720 937.984c-100.224-30.464-208-104.064-305.92-201.984-51.072-51.008-93.76-104.32-128-158.080-171.52 0-280.128-139.84-280.128-139.84-9.472-12.032-8.576-30.976 1.92-41.984l64-64c32-32 75.52 14.4 44.032 45.952l-40 40c22.4 23.808 80.384 78.528 170.048 92.16-13.056-26.24-23.488-52.8-32-78.080-33.408-99.2-31.488-194.56 27.968-254.080 59.52-59.392 154.88-61.312 254.080-27.904 25.28 8.512 51.84 18.944 78.080 32-13.76-90.24-70.848-148.288-94.080-169.984l-41.984 41.984c-27.968 27.904-74.88-15.104-44.032-46.080l64-64c11.072-10.496 30.080-11.52 42.048-1.92 0 0 139.968 108.608 139.968 280 54.208 34.368 108.48 76.416 160 128 97.92 97.856 168.576 206.656 201.984 305.856s32.512 202.368-27.968 254.080c-81.28 69.12-164.16 55.296-254.080 27.904zM929.92 865.984c34.88-34.752 41.344-102.976 12.16-189.952-29.44-87.040-94.080-188.032-186.112-280-91.904-91.904-193.024-156.672-279.936-185.984-87.040-29.184-155.2-22.72-190.080 12.16-34.752 34.752-41.216 102.912-11.968 189.888 29.44 87.040 94.080 188.16 186.048 280.064s193.408 155.52 280 185.984c72.96 25.6 150.656 27.264 190.080-12.16zM704 768c-70.4 0-128.832-58.56-128.832-128.832 0-70.4 58.496-126.912 128.832-126.912 70.4 0 126.912 56.576 126.912 126.912 0 70.272-56.512 128.832-126.912 128.832zM704 703.552c35.712 0 64.448-28.672 64.448-64.384 0-35.84-28.8-64.448-64.448-64.448-35.712 0-64.448 28.672-64.448 64.448 0 35.712 28.8 64.384 64.448 64.384zM99.584-9.856l-45.248-45.248c-28.16-28.16-73.984 16.512-45.44 45.184l45.44 45.248c30.208 30.272 74.112-16.32 45.184-45.248zM291.584 54.144l-45.248-45.248c-28.16-28.16-73.984 16.512-45.44 45.184l45.44 45.248c30.208 30.272 74.112-16.32 45.184-45.248zM163.584 182.144l-45.248-45.248c-28.16-28.16-73.984 16.512-45.44 45.184l45.44 45.248c30.208 30.272 74.112-16.32 45.184-45.248z" />
<glyph unicode="&#xe969;" glyph-name="mbri-sad-face" d="M384 608v-64c0-42.624-64-42.496-64 0v64c0 41.6 64 43.52 64 0zM704 608v-64c0-42.624-64-42.496-64 0v64c0 41.6 64 43.52 64 0zM511.872 320c-70.4 0-141.312-22.912-184.96-76.16-25.28-30.912 25.152-68.224 48.256-40.128 26.048 31.616 80.832 52.096 136.704 52.096 55.936 0 110.4-20.672 136.704-52.096 27.264-32.512 73.152 9.92 48.256 40.128-43.84 53.12-114.56 76.16-184.96 76.16zM512 960c-282.368 0-512-229.632-512-512s229.632-512 512-512 512 229.632 512 512-229.632 512-512 512zM512 896c247.808 0 448-200.192 448-448s-200.192-448-448-448-448 200.192-448 448 200.192 448 448 448z" />
<glyph unicode="&#xe96a;" glyph-name="mbri-sale" d="M288 384h320c42.432 0 42.88-64 0-64h-320c-42.24 0-42.752 64 0 64zM512 224c0-17.664-14.4-32-32-32-17.728 0-32 14.336-32 32s14.272 32 32 32c17.6 0 32-14.336 32-32zM448 480c0-17.664-14.4-32-32-32-17.728 0-32 14.336-32 32s14.272 32 32 32c17.6 0 32-14.336 32-32zM896 768c0-35.328-28.8-64-64-64-35.456 0-64 28.672-64 64s28.544 64 64 64c35.2 0 64-28.672 64-64zM608 960c-45.76 0-88.512-12.608-118.016-40l-462.848-470.848c-35.84-36.48-36.48-97.472 0-133.952l352-352c36.48-36.48 95.36-35.968 132.032 0l470.848 462.72c24.32 24.64 41.984 64.32 41.984 118.080v320c0 52.736-43.264 96-96 96zM608 896h320c16.128 0 32-15.872 32-32v-320c0-39.872-12.928-62.976-22.016-72l-470.784-462.848c-12.608-12.352-31.808-12.16-44.032 0l-352 352c-12.16 12.16-10.368 29.44 1.92 41.984l460.928 470.784c12.8 11.968 41.728 22.080 73.984 22.080z" />
<glyph unicode="&#xe96b;" glyph-name="mbri-save" d="M0 160v-64c0-52.608 43.392-96 96-96h768c52.608 0 96 43.392 96 96v64c0 42.624-64 41.984-64 0v-64c0-18.304-13.696-32-32-32h-768c-18.304 0-32 13.696-32 32v64c0 40.64-64 43.52-64 0zM136.704 456.96l321.28-320.64c11.776-11.136 32.384-11.136 44.16 0l321.28 320.64c25.856 30.4-12.032 70.912-44.16 46.080l-299.264-298.496-299.072 298.496c-28.8 28.8-71.36-18.88-44.16-46.080zM512 928v-576c0-41.6-64-43.136-64 0v576c0 42.752 64 41.92 64 0z" />
<glyph unicode="&#xe96c;" glyph-name="mbri-search" d="M329.472 311.040l-320.384-320c-28.032-28.032 15.232-74.88 44.032-46.080l320.384 320c31.872 31.872-16.448 73.6-44.032 46.080zM671.36 832c-55.040 0-113.28-20.352-151.68-71.168-25.792-34.24 19.84-70.4 42.432-48.96 60.928 70.272 156.352 69.248 218.56 0 22.272-24.768 71.424 13.696 42.432 48.96-40.384 49.28-96.704 71.168-151.744 71.168zM672 960c-194.048 0-352-157.952-352-352s157.952-352 352-352 352 157.952 352 352-157.952 352-352 352zM672 896c159.36 0 288-128.64 288-288s-128.64-288-288-288-288 128.64-288 288 128.64 288 288 288z" />
<glyph unicode="&#xe96d;" glyph-name="mbri-setting" d="M384 864v-56c-11.904-3.968-24.32-8.704-36.032-14.080l-40 40.064c-39.296 39.424-96.128 36.288-133.952 0l-46.016-43.904c-37.76-36.032-34.816-103.168-1.92-136l39.936-42.048c-5.376-12.032-9.984-23.68-14.080-36.032h-55.936c-52.608 0-96-43.328-96-96v-64c0-52.608 43.392-96 96-96h57.984c3.84-10.88 7.168-21.44 12.032-32l-40-41.984c-28.48-29.824-38.912-95.104 1.92-135.936l46.080-46.080c36.992-36.992 96.832-36.992 133.888 0 12.8 12.8 27.52 26.88 40 40.064 11.52-5.504 23.872-9.6 36.032-14.080v-57.92c0-52.608 43.392-96 96-96h64c52.608 0 96 43.392 96 96v58.048c12.16 4.48 24.512 8.448 36.032 14.080 9.6-11.712 27.008-27.136 39.936-40.064 37.12-36.992 96.96-36.992 134.016 0l46.080 46.080c36.608 36.48 37.12 100.736 2.112 135.808-18.88 18.88-40.128 42.112-40.128 42.112 4.864 10.496 8.192 21.12 12.032 32h57.984c52.608 0 96 43.392 96 96v64c0 52.608-43.392 96-96 96h-56c-4.032 12.288-8.64 24-14.080 35.968l40.064 42.048c33.28 34.752 34.304 99.712-1.92 135.936l-46.080 43.968c-43.52 41.792-101.44 32.512-133.888 0l-40.064-39.936c-11.712 5.248-24.064 10.048-35.968 14.080v55.808c-0.064 52.608-43.456 96-96.064 96h-64c-52.8 0-96-43.328-96-96zM544 896c18.304 0 32-13.696 32-32v-78.080c0.448-13.632 10.688-26.496 24-29.888 24.96-7.168 47.808-16.64 68.032-28.032 12.16-6.4 28.416-3.84 37.952 6.016l54.080 53.952c14.4 14.4 33.792 12.16 46.080 0l45.888-44.032c16.448-15.68 8.96-32.64-1.92-43.968l-54.080-56c-9.216-10.048-10.88-26.24-3.968-38.016 11.776-21.12 20.864-44.544 28.032-70.080 3.392-13.248 16.256-23.552 29.952-24h78.080c18.304 0 32-13.696 32-32v-64c0-18.24-13.696-32-32-32h-78.080c-13.184 0-25.792-9.408-29.888-21.952-7.040-24.576-16.384-47.168-28.032-68.032-7.040-11.712-5.248-27.968 4.032-38.016l55.936-56c13.12-13.056 13.12-30.912 0-43.968l-45.952-46.080c-12.544-12.416-31.040-11.328-44.032 0l-54.016 56.064c-10.24 10.24-27.84 11.904-39.936 3.968-21.504-12.032-44.352-21.248-68.032-27.968-13.952-3.648-24.448-17.664-24-32v-78.080c0-18.304-13.696-32-32-32h-64c-18.304 0-32 13.696-32 32v78.080c0.448 14.336-10.048 28.352-24 32-23.68 6.656-46.528 15.872-68.032 27.904-12.16 7.936-29.632 6.208-40-3.968l-53.952-56c-12.992-11.52-31.488-12.544-44.032 0l-46.080 45.952c-12.992 13.056-12.992 30.912 0.128 43.968l55.808 56.256c9.28 10.048 11.008 26.24 4.032 38.016-11.648 20.864-20.992 43.52-28.032 68.032-4.096 12.544-16.64 21.76-29.952 21.952h-78.016c-18.304 0-32 13.76-32 32v64c0 18.304 13.696 32 32 32h78.080c13.632 0.64 26.496 10.688 29.888 24 7.168 25.6 16.256 49.024 28.032 70.016 7.040 11.648 5.248 27.904-4.032 37.952l-53.952 56c-16 16-10.752 35.328-2.112 43.968l46.080 44.032c14.72 14.080 34.88 11.072 45.952 0l54.016-54.016c9.472-9.92 25.792-12.544 37.952-6.080 20.16 11.328 42.88 20.864 67.968 28.032 13.312 3.456 23.552 16.256 24 29.952v78.144c0 18.304 14.080 32 32 32zM512 640c-105.6 0-192-86.4-192-192s86.4-192 192-192 192 86.4 192 192-86.4 192-192 192zM512 576c71.040 0 128-56.96 128-128s-56.96-128-128-128c-71.040 0-128 56.96-128 128s56.96 128 128 128z" />
<glyph unicode="&#xe96e;" glyph-name="mbri-setting2" d="M704 672v64c0 43.136 64 42.048 64 0v-64c0-41.792-64-42.432-64 0zM672 576h128c42.624 0 42.688-64 0-64h-128c-43.328 0-41.6 64 0 64zM768 416v-256c0-43.328-64-41.6-64 0v256c0 43.328 64 40.96 64 0zM512 224v-64c0-43.136-64-42.048-64 0v64c0 41.792 64 42.432 64 0zM544 320h-128c-42.624 0-42.688 64 0 64h128c43.328 0 41.6-64 0-64zM448 480v256c0 43.328 64 41.6 64 0v-256c0-43.328-64-40.96-64 0zM192 672v64c0 43.136 64 42.048 64 0v-64c0-41.792-64-42.432-64 0zM160 576h128c42.624 0 42.688-64 0-64h-128c-43.328 0-41.6 64 0 64zM256 416v-256c0-43.328-64-41.6-64 0v256c0 43.328 64 40.96 64 0zM96 960c-52.608 0-96-43.392-96-96v-832c0-52.608 43.392-96 96-96h768c52.608 0 96 43.392 96 96v832c0 52.608-43.392 96-96 96zM96 896h768c18.304 0 32-13.696 32-32v-832c0-18.304-13.696-32-32-32h-768c-18.304 0-32 13.696-32 32v832c0 18.304 13.696 32 32 32z" />
<glyph unicode="&#xe96f;" glyph-name="mbri-setting3" d="M320 960c-33.28 0-64.384-5.76-92.032-14.080-21.12-6.656-28.352-38.784-11.968-53.952l137.92-137.984c41.152-40.96 41.152-104.832 0-145.92-40.96-41.088-106.88-41.088-147.84 0l-138.24 137.92c-15.744 14.336-45.44 6.4-51.968-13.952-8.192-27.648-15.872-58.752-15.872-92.032 0-176.32 143.68-320 320-320 26.432 0 50.688 6.016 73.984 12.032l358.016-358.016c47.616-47.616 124.416-47.616 172.032 0l64 64c47.552 47.616 47.552 126.4 0 174.080l-358.080 357.824c5.376 23.104 10.048 45.504 10.048 70.080 0 176.32-143.68 320-320 320zM576 640c0-25.472-3.072-48.64-9.984-72-3.392-11.072-0.192-23.808 8-32l369.92-369.92c23.424-23.488 23.36-58.688 0-82.112l-64-64c-23.424-23.36-60.608-23.36-84.032 0l-369.92 370.048c-8.192 8.192-20.992 11.392-32 8-24.832-7.616-48.896-14.016-73.984-14.016-144.32 0-266.88 121.088-254.080 273.92l96-96c65.408-65.28 170.752-65.28 236.16 0 65.28 65.408 65.28 172.8 0 238.080l-94.080 94.080c148.288 16.96 272-111.744 272-254.080z" />
<glyph unicode="&#xe970;" glyph-name="mbri-share" d="M704 864v-102.016c-87.040-6.144-155.328-29.44-196.032-75.968-43.904-50.368-58.624-136-59.968-206.080 0-43.072 64-41.344 64 0 0 9.216 19.84 34.56 36.032 44.032 27.2 21.888 78.592 42.048 155.968 48v-91.968c-0.768-24.32 33.024-41.216 52.032-25.984l256 192c16.384 11.776 16.384 40.192 0 51.968l-256 192c-18.944 14.208-52.032-0.64-52.032-25.984zM768 800l169.984-128-169.984-128v64c0 16.768-15.232 32-32 32-92.16 0-162.88-34.304-207.104-61.12 0 25.6 16 52.48 27.136 65.088 31.744 36.544 85.632 60.032 179.968 60.032 16.768 0 32 15.232 32 32zM96 704c-52.608 0-96-43.392-96-96v-512c0-52.608 43.392-96 96-96h832c52.608 0 96 43.392 96 96v384c0 42.624-64 42.432-64 0v-384c0-18.304-13.696-32-32-32h-832c-18.304 0-32 13.696-32 32v512c0 18.304 13.696 32 32 32h256c42.688 0 42.112 64 0 64z" />
<glyph unicode="&#xe971;" glyph-name="mbri-shopping-bag" d="M416 704h192c43.264 0 41.92-64 0-64h-192c-42.24 0-42.368 64 0 64zM160 704c-52.864 0.192-90.688-44.032-96-91.968l-64-576c-6.272-56.512 43.264-100.032 96-100.032h832c52.736 0 102.272 43.52 96 100.032l-64 576c-5.312 48-43.392 91.776-96 91.968-41.152 0-42.688-64 0-64 18.304 0 29.44-11.52 32-33.92l64-576c1.536-14.080-13.824-30.080-32-30.080h-832c-18.176 0-33.536 16-32 30.080l64 576c2.56 22.4 13.952 33.92 32 33.92 41.088 0 43.712 64 0 64zM512 960c-141.248 0-256-114.752-256-256v-96c0-42.432 64-40 64 0v96c0 106.88 85.12 192 192 192s192-85.12 192-192v-96c0-44.16 64-38.912 64 0v96c0 141.248-114.752 256-256 256z" />
<glyph unicode="&#xe972;" glyph-name="mbri-shopping-basket" d="M704 480v-256c0-42.048-64-42.048-64 0v256c0 40.96 64 43.84 64 0zM512 480v-256c0-42.048-64-42.048-64 0v256c0 40.96 64 43.84 64 0zM693.888 951.424l129.28-128.384c27.52-27.264-15.36-74.88-44.416-46.080l-129.28 128.32c-29.44 29.248 16.896 73.472 44.416 46.080zM320 480v-256c0-42.048-64-42.048-64 0v256c0 40.96 64 43.84 64 0zM266.112 951.424l-129.28-128.384c-27.52-27.264 15.36-74.88 44.416-46.080l129.28 128.32c29.44 29.248-16.896 73.472-44.416 46.080zM96 704c-70.656 0-104.192-49.152-94.272-102.016l95.808-512c11.008-58.752 46.72-89.984 94.464-89.984h576c61.184 0 84.8 40.064 94.080 89.984l95.872 512c13.12 70.016-37.12 102.016-93.952 102.016zM96 640h768c21.888 0 33.728-17.28 32-25.984l-95.744-512c-4.608-24.576-19.456-38.016-32.256-38.016h-576c-22.016 0-29.888 23.808-32.64 38.016l-95.744 512c-4.096 21.504 20.48 25.984 32.384 25.984z" />
<glyph unicode="&#xe973;" glyph-name="mbri-shopping-cart" d="M416 448h384c43.648 0 41.344-64 0-64h-384c-43.776 0-41.6 64 0 64zM32 768h96c24.576 0 31.36-39.424 37.312-70.784l64-336c23.488-87.68 79.808-105.216 154.688-105.216h384c94.080 0 162.176 11.776 186.88 95.168l60.032 201.984c29.696 97.92-11.52 150.848-103.936 150.848h-558.976c-42.24 0-42.24-64 0-64h558.976c59.84 0 55.040-24.832 41.984-68.8l-57.984-198.016c-16-54.528-76.8-53.12-126.976-53.12h-384c-57.6-3.072-78.4 9.152-90.752 55.168l-64 334.080c-14.016 73.024-28.736 122.688-101.248 122.688h-96c-42.24 0-43.008-64 0-64zM352 576h512c42.56 0 42.368-64 0-64h-512c-41.6 0-42.56 64 0 64zM736 192c-52.736 0-96-43.264-96-96s43.264-96 96-96 96 43.264 96 96-43.264 96-96 96zM736 128c18.112 0 32-13.888 32-32s-13.888-32-32-32c-18.112 0-32 13.888-32 32s13.888 32 32 32zM352 192c-52.736 0-96-43.264-96-96s43.264-96 96-96 96 43.264 96 96-43.264 96-96 96zM352 128c18.112 0 32-13.888 32-32s-13.888-32-32-32c-18.112 0-32 13.888-32 32s13.888 32 32 32z" />
<glyph unicode="&#xe974;" glyph-name="mbri-sites" d="M416 320h448c43.52 0 40.96-64 0-64h-448c-41.6 0-43.136 64 0 64zM416 448h448c43.52 0 40.96-64 0-64h-448c-41.6 0-43.136 64 0 64zM192 448c-34.88 0-64-29.12-64-64v-64c0-34.88 29.12-64 64-64h64c34.88 0 64 29.12 64 64v64c0 34.88-29.12 64-64 64zM192 384h64v-64h-64zM160 576h704c43.52 0 40.96-64 0-64h-704c-41.6 0-43.136 64 0 64zM448 672c0-17.664-14.336-32-32-32s-32 14.336-32 32 14.336 32 32 32 32-14.336 32-32zM320 672c0-17.664-14.336-32-32-32s-32 14.336-32 32 14.336 32 32 32 32-14.336 32-32zM192 672c0-17.664-14.336-32-32-32s-32 14.336-32 32 14.336 32 32 32 32-14.336 32-32zM96 832c-52.608 0-96-43.392-96-96v-576c0-52.608 43.392-96 96-96h832c52.608 0 96 43.392 96 96v576c0 52.608-43.392 96-96 96zM96 768h832c18.304 0 32-13.696 32-32v-576c0-18.304-13.696-32-32-32h-832c-18.304 0-32 13.696-32 32v576c0 18.304 13.696 32 32 32z" />
<glyph unicode="&#xe975;" glyph-name="mbri-smile-face" d="M384 608v-64c0-42.624-64-42.496-64 0v64c0 41.6 64 43.52 64 0zM704 608v-64c0-42.624-64-42.496-64 0v64c0 41.6 64 43.52 64 0zM512 192c-70.4 0-141.312 22.912-184.96 76.16-25.28 30.912 25.152 68.224 48.256 40.128 25.984-31.616 80.768-52.288 136.704-52.288s110.4 20.864 136.704 52.288c27.264 32.512 73.152-9.92 48.256-40.128-43.84-53.12-114.56-76.16-184.96-76.16zM512 960c-282.368 0-512-229.632-512-512s229.632-512 512-512 512 229.632 512 512-229.632 512-512 512zM512 896c247.808 0 448-200.192 448-448s-200.192-448-448-448-448 200.192-448 448 200.192 448 448 448z" />
<glyph unicode="&#xe976;" glyph-name="mbri-speed" d="M416 896h198.016c32.768 0 28.032-32.64 22.016-56l-58.048-224c-4.736-18.56 10.88-39.424 30.080-40h121.984c58.56 0 35.712-41.6 8-75.968l-338.048-420.032 48 332.032c2.24 17.92-13.824 36.096-32 35.968h-128c-38.4 0-35.2 39.168-30.080 68.032l61.312 344c7.296 40.96-57.152 49.472-64 9.984l-59.2-342.016c-16.96-97.536 33.28-144 91.968-144h89.984l-57.984-409.984c-5.568-33.024 34.56-51.456 56-25.984l409.984 509.952c85.568 106.368 43.904 182.016-55.936 182.016h-80l48 184c21.184 81.28-20.032 136-84.032 136h-198.016c-40.32 0-43.648-64 0-64z" />
<glyph unicode="&#xe977;" glyph-name="mbri-star" d="M437.504 906.048c-36.992-59.52-64.64-119.040-93.952-179.84-21.12-44.032-37.76-49.6-75.904-57.856-66.56-14.4-130.56-24.32-193.92-39.936-35.84-8.96-66.432-37.568-70.848-54.016-4.48-16.384-4.032-37.12 3.008-49.92 40.832-75.2 100.864-130.88 157.824-189.76 32.96-33.92 32.192-56.32 27.968-93.824-7.872-70.144-18.176-136.96-23.936-203.776-3.2-37.952 5.568-68.224 28.032-87.872 24.192-21.12 61.12-13.184 89.92-1.92 64 24.832 120.96 57.408 179.84 87.808 34.24 17.6 51.648 19.008 91.904 0 62.208-29.44 119.488-60.8 179.84-87.936 34.048-15.36 68.8-13.568 93.44 4.864 24.704 18.432 24.96 53.312 24.448 85.12-1.088 70.72-13.76 135.68-24 203.648-7.168 47.616 3.008 66.176 27.968 93.888 46.912 52.096 93.568 100.16 135.872 151.872 23.040 28.16 34.944 52.48 25.984 85.888-8.96 33.28-42.56 46.272-71.936 55.936-64.832 21.248-128.96 28.416-193.92 39.872-47.68 8.448-57.984 23.488-75.904 57.92-32.256 62.080-60.16 125.184-93.888 179.84-19.776 32-39.616 53.952-73.984 53.952-34.176 0-57.856-28.16-73.856-53.952zM523.456 866.112c35.648-57.28 64.32-115.584 91.84-173.824 29.888-63.36 67.2-83.84 125.888-95.872 63.808-13.12 122.112-21.888 183.872-38.016 21.76-5.76 20.224-16.128 9.984-29.952-39.552-53.44-85.376-98.368-129.92-143.808-48.512-49.664-55.808-95.36-47.872-153.728 9.28-68.672 18.56-125.312 25.984-195.84 2.176-20.8-5.888-24.96-22.016-17.92-57.984 25.728-120.128 55.68-171.84 83.84-55.232 30.080-90.688 31.744-155.968 0-60.16-29.184-109.824-55.040-171.84-83.84-16-7.424-23.68-2.24-21.952 17.92 5.568 65.28 15.36 136.128 25.984 195.84 12.288 68.288-8.32 109.312-48 153.792-44.544 50.176-85.952 95.168-129.792 143.872-22.144 24.576 3.52 27.712 9.984 29.952 60.672 20.992 123.008 28.352 183.808 37.952 69.12 10.88 98.048 43.008 125.952 95.808 31.808 60.352 57.344 115.84 91.904 173.824 9.6 16 15.872 12.992 24 0z" />
<glyph unicode="&#xe978;" glyph-name="mbri-success" d="M501.888 201.28c-28.928-28.8-73.92 16.192-44.032 46.080l512.448 511.616c28.48 28.288 73.6-16.64 44.16-46.080zM330.112 137.28c28.928-28.8 73.92 16.192 44.16 46.080l-320.704 319.552c-28.224 28.288-73.408-16.512-43.968-45.952z" />
<glyph unicode="&#xe979;" glyph-name="mbri-sun" d="M137.984 776.832l45.248-45.248c30.848-30.72 74.24 16.32 45.248 45.312l-45.248 45.248c-30.080 30.080-75.52-15.040-45.248-45.248zM731.904 776.832l45.312 45.248c30.848 30.848 74.24-16.32 45.248-45.248l-45.184-45.248c-30.080-30.080-75.52 15.040-45.248 45.312zM137.984 183.36l45.248 45.248c30.848 30.72 74.24-16.32 45.248-45.248l-45.248-45.312c-30.080-30.080-75.52 15.040-45.248 45.312zM864 512h64c43.52 0 40.96-64 0-64h-64c-42.624 0-42.752 64 0 64zM32 512h64c43.52 0 40.96-64 0-64h-64c-42.624 0-42.752 64 0 64zM512 96v-64c0-43.52-64-40.96-64 0v64c0 42.624 64 42.752 64 0zM512 928v-64c0-43.52-64-40.96-64 0v64c0 42.624 64 42.752 64 0zM480 768c-158.72 0-288-129.28-288-288s129.28-288 288-288 288 129.28 288 288-129.28 288-288 288zM480 704c124.16 0 224-99.84 224-224s-99.84-224-224-224-224 99.84-224 224 99.84 224 224 224zM731.968 183.488l45.248-45.312c30.848-30.848 74.24 16.256 45.248 45.248l-45.184 45.248c-30.080 30.080-75.52-15.040-45.248-45.248z" />
<glyph unicode="&#xe97a;" glyph-name="mbri-sun2" d="M310.016 264.96l-127.104-126.912c-30.912-30.72-74.432 16.32-45.312 45.184l127.040 126.848c30.208 30.080 75.648-15.040 45.44-45.184zM649.984 264.96l127.104-126.912c30.912-30.72 74.432 16.32 45.312 45.184l-127.040 126.848c-30.208 30.080-75.648-15.040-45.44-45.184zM310.016 695.040l-127.104 126.976c-30.912 30.72-74.432-16.32-45.312-45.184l127.040-126.848c30.208-30.080 75.648 15.040 45.44 45.184zM649.984 695.040l127.104 126.912c30.912 30.72 74.432-16.32 45.312-45.184l-127.040-126.848c-30.208-30.080-75.648 15.040-45.44 45.184zM480 640c-88 0-160-72-160-160s72-160 160-160 160 72 160 160-72 160-160 160zM480 576c53.376 0 96-42.624 96-96s-42.624-96-96-96-96 42.624-96 96 42.624 96 96 96zM736 512h192c43.52 0 40.96-64 0-64h-192c-42.624 0-42.752 64 0 64zM32 512h192c43.52 0 40.96-64 0-64h-192c-42.624 0-42.752 64 0 64zM512 224v-192c0-43.52-64-40.96-64 0v192c0 42.624 64 42.752 64 0zM512 928v-192c0-43.52-64-40.96-64 0v192c0 42.624 64 42.752 64 0z" />
<glyph unicode="&#xe97b;" glyph-name="mbri-tablet-vertical" d="M480 128h64c43.264 0 41.92-64 0-64h-64c-42.88 0-42.688 64 0 64zM288 256h448c43.264 0 41.92-64 0-64h-448c-41.728 0-43.008 64 0 64zM128 32c0-52.608 43.392-96 96-96h576c52.608 0 96 43.392 96 96v832c0 52.608-43.392 96-96 96h-576c-52.608 0-96-43.392-96-96v-832zM192 32v832c0 18.304 13.696 32 32 32h576c18.304 0 32-13.696 32-32v-832c0-18.304-13.696-32-32-32h-576c-18.304 0-32 13.696-32 32z" />
<glyph unicode="&#xe97c;" glyph-name="mbri-tablet" d="M192 480v-64c0-43.264-64-41.92-64 0v64c0 42.88 64 42.688 64 0zM320 672v-448c0-43.264-64-41.92-64 0v448c0 41.728 64 43.008 64 0zM96 832c-52.608 0-96-43.392-96-96v-576c0-52.608 43.392-96 96-96h832c52.608 0 96 43.392 96 96v576c0 52.608-43.392 96-96 96h-832zM96 768h832c18.304 0 32-13.696 32-32v-576c0-18.304-13.696-32-32-32h-832c-18.304 0-32 13.696-32 32v576c0 18.304 13.696 32 32 32z" />
<glyph unicode="&#xe97d;" glyph-name="mbri-target" d="M480 640c-88 0-160-72-160-160s72-160 160-160 160 72 160 160-72 160-160 160zM480 576c53.376 0 96-42.624 96-96s-42.624-96-96-96-96 42.624-96 96 42.624 96 96 96zM448 928v-33.92c-203.328-16-366.080-178.752-382.080-382.080h-33.92c-40.64 0-43.136-64 0-64h33.92c14.912-204.416 177.92-366.208 382.080-382.080v-33.92c0-41.728 64-42.432 64 0v33.92c204.16 15.872 367.168 177.664 382.080 382.080h33.92c41.728 0 42.432 64 0 64h-33.92c-16 203.392-178.816 366.080-382.080 382.080v33.92c0 41.472-64 42.88-64 0zM448 830.080v-30.080c0-41.728 64-42.432 64 0v30.080c168.512-15.36 301.888-149.824 318.080-318.080h-30.080c-40.64 0-43.136-64 0-64h30.080c-14.464-169.92-148.288-302.848-318.080-318.080v30.080c0 40.64-64 43.136-64 0v-30.080c-169.792 15.36-303.616 148.224-318.080 318.080h30.080c41.728 0 42.432 64 0 64h-30.080c15.68 168.96 158.336 305.28 318.080 318.080z" />
</font>
</defs>
</svg>
